if (_typeface_js && _typeface_js.loadFace) _typeface_js.loadFace({"glyphs":{"0":{"ha":949,"x_min":31,"x_max":920,"o":"m 558 449 q 538 636 557 583 q 475 689 519 689 q 411 636 430 689 q 392 449 392 583 q 411 261 392 315 q 475 208 430 208 q 539 261 519 208 q 558 449 558 314 m 920 449 q 809 115 920 244 q 475 -14 699 -14 q 141 115 251 -14 q 31 449 31 244 q 141 782 31 654 q 475 911 251 911 q 809 782 699 911 q 920 449 920 653 z "},"1":{"ha":568,"x_min":-7,"x_max":513,"o":"m 513 0 l 151 0 l 151 663 l -7 663 l -7 798 l 53 798 q 240 897 180 798 l 513 897 l 513 0 z "},"2":{"ha":876,"x_min":28,"x_max":844,"o":"m 412 689 q 346 576 346 689 q 383 469 346 518 l 50 501 q 32 625 32 565 q 134 837 32 762 q 429 911 235 911 q 730 842 623 911 q 838 632 837 774 q 777 469 838 541 q 715 403 745 431 q 429 222 654 345 l 844 222 l 844 0 l 28 0 l 28 129 q 374 399 217 269 q 476 604 477 482 q 460 665 476 640 q 412 689 444 689 z "},"3":{"ha":861,"x_min":31,"x_max":833,"o":"m 833 256 q 727 59 833 132 q 420 -14 620 -14 q 125 49 221 -14 q 31 215 31 111 q 57 334 31 269 l 379 359 q 363 286 362 322 q 427 208 363 208 q 476 234 460 208 q 492 294 492 260 q 454 392 492 365 q 317 418 416 419 l 297 418 l 297 513 l 317 513 q 430 545 392 513 q 468 628 468 578 q 453 671 468 654 q 412 689 438 689 q 353 619 353 689 q 363 568 353 593 l 77 590 q 64 675 64 636 q 160 849 64 787 q 429 911 256 911 q 701 852 601 911 q 802 701 802 794 q 739 553 802 607 q 534 471 677 498 q 575 472 548 472 q 765 415 696 472 q 833 256 834 358 z "},"4":{"ha":948,"x_min":17,"x_max":935,"o":"m 435 366 l 435 656 l 222 366 l 435 366 m 935 170 l 796 170 l 796 0 l 435 0 l 435 170 l 17 170 l 17 379 l 412 897 l 796 897 l 796 366 l 935 366 l 935 170 z "},"5":{"ha":903,"x_min":40,"x_max":872,"o":"m 872 315 q 772 77 872 167 q 456 -14 673 -14 q 40 187 41 -14 q 49 248 40 214 l 383 272 l 383 258 q 444 180 383 180 q 494 210 477 180 q 511 278 511 239 q 447 364 511 364 q 385 306 399 364 l 61 349 l 113 897 l 814 897 l 814 668 l 383 668 l 359 376 q 456 538 382 478 q 637 597 530 597 q 808 518 745 597 q 872 315 872 439 z "},"6":{"ha":929,"x_min":33,"x_max":904,"o":"m 432 227 q 440 214 432 227 q 479 201 449 201 q 526 230 510 201 q 543 296 543 258 q 527 361 543 334 q 480 387 511 387 q 432 358 449 387 q 415 291 415 329 q 432 227 415 253 m 904 314 q 789 81 904 176 q 472 -14 673 -14 q 33 435 33 -14 q 144 783 33 654 q 497 911 256 911 q 829 689 829 911 q 823 625 829 654 l 536 587 q 539 616 539 607 q 486 697 539 697 q 423 631 439 697 q 406 396 407 566 q 492 511 427 467 q 643 555 558 556 q 840 486 775 555 q 904 314 904 416 z "},"7":{"ha":790,"x_min":21,"x_max":790,"o":"m 790 897 l 790 750 q 546 0 561 521 l 184 0 q 343 513 190 321 q 547 661 427 617 l 21 661 l 21 897 l 790 897 z "},"8":{"ha":922,"x_min":28,"x_max":895,"o":"m 533 297 q 516 374 533 342 q 461 407 498 407 q 406 374 424 407 q 389 297 389 342 q 461 183 389 183 q 533 297 533 183 m 404 635 q 404 584 404 635 q 461 533 404 533 q 518 635 518 533 q 461 737 518 736 q 404 635 404 736 m 895 252 q 770 53 895 119 q 461 -14 646 -14 q 152 52 277 -14 q 28 252 28 118 q 102 408 28 350 q 289 481 176 465 q 125 550 183 494 q 68 686 68 606 q 171 850 68 791 q 461 911 274 910 q 751 850 648 911 q 854 686 854 790 q 796 555 854 607 q 633 481 738 503 q 819 415 745 477 q 895 252 894 353 z "},"9":{"ha":926,"x_min":28,"x_max":899,"o":"m 406 667 q 389 601 389 639 q 405 536 389 563 q 452 510 421 510 q 500 539 484 510 q 517 607 517 568 q 500 671 517 646 q 453 696 483 696 q 406 667 423 696 m 28 597 q 142 822 28 734 q 460 911 257 910 q 798 806 697 911 q 899 488 899 701 q 463 -14 899 -14 q 164 45 270 -14 q 58 210 58 103 q 65 267 58 236 l 429 311 q 416 257 417 281 q 460 200 416 200 q 515 264 503 200 q 526 501 526 329 q 439 386 505 431 q 289 342 374 341 q 87 416 147 342 q 28 597 28 491 z "}," ":{"ha":284,"x_min":0,"x_max":0,"o":""},"!":{"ha":472,"x_min":56,"x_max":416,"o":"m 403 0 l 69 0 l 69 265 l 403 265 l 403 0 m 56 925 l 416 925 l 416 595 l 292 322 l 180 322 l 56 595 l 56 925 z "},"\"":{"ha":687,"x_min":49,"x_max":639,"o":"m 639 547 l 393 547 l 393 925 l 639 925 l 639 547 m 294 547 l 49 547 l 49 925 l 294 925 l 294 547 z "},"#":{"ha":1083,"x_min":35,"x_max":1048,"o":"m 456 558 l 425 372 l 628 372 l 659 558 l 456 558 m 366 0 l 170 0 l 200 193 l 35 193 l 65 372 l 229 372 l 260 558 l 94 558 l 123 737 l 289 737 l 319 925 l 515 925 l 485 737 l 688 737 l 718 925 l 914 925 l 884 737 l 1048 737 l 1019 558 l 854 558 l 823 372 l 990 372 l 960 193 l 794 193 l 764 0 l 568 0 l 599 193 l 396 193 l 366 0 z "},"$":{"ha":913,"x_min":35,"x_max":863,"o":"m 355 -153 l 355 -7 q 35 111 200 14 l 127 306 q 283 233 189 263 q 465 203 378 203 q 529 245 529 203 q 500 289 529 269 q 376 335 472 309 q 132 455 196 387 q 68 638 68 524 q 156 827 68 753 q 424 909 244 902 l 424 1050 l 574 1050 l 574 903 q 861 796 701 882 l 770 603 q 469 699 593 699 q 403 657 403 699 q 429 616 403 633 q 534 578 456 598 q 787 467 712 530 q 863 292 863 403 q 787 90 863 180 q 505 -12 711 -1 l 505 -153 l 355 -153 z "},"%":{"ha":1320,"x_min":35,"x_max":1286,"o":"m 340 572 q 345 584 340 572 q 349 656 349 596 q 340 740 349 715 q 307 764 332 764 q 273 740 282 764 q 265 656 265 715 q 273 572 265 596 q 307 549 281 549 q 340 572 332 549 m 579 656 q 508 471 579 540 q 308 401 437 401 q 106 470 179 401 q 35 655 35 538 q 109 842 35 772 q 307 911 182 911 q 506 842 433 911 q 579 656 579 772 m 1047 157 q 1055 240 1055 180 q 1047 324 1055 300 q 1014 349 1039 349 q 981 324 989 349 q 972 240 972 300 q 981 157 972 180 q 1014 133 989 133 q 1047 157 1039 133 m 978 897 l 517 0 l 346 0 l 807 897 l 978 897 m 1213 427 q 1286 240 1286 357 q 1215 55 1286 123 q 1015 -14 1143 -14 q 813 55 886 -14 q 742 240 742 123 q 815 427 742 357 q 1014 496 889 496 q 1213 427 1139 496 z "},"&":{"ha":1400,"x_min":21,"x_max":1394,"o":"m 726 785 q 719 775 726 785 q 711 733 711 766 q 737 660 711 700 q 764 618 747 643 q 825 730 825 656 q 768 803 825 803 q 726 785 742 803 m 619 157 q 701 164 659 157 q 497 458 614 279 q 427 296 427 392 q 619 157 426 157 m 990 757 q 941 640 990 692 q 798 568 892 587 q 953 345 937 369 q 968 416 968 382 q 932 530 968 476 l 1053 576 q 1108 427 1108 521 q 1029 232 1108 334 q 1147 139 1095 139 q 1183 180 1183 138 q 1139 250 1183 222 l 1226 347 q 1350 304 1305 345 q 1394 204 1395 263 q 1305 52 1394 119 q 1054 -17 1215 -16 q 898 -2 957 -17 q 794 52 839 13 q 442 -16 643 -16 q 132 56 241 -16 q 21 251 21 127 q 126 451 21 374 q 431 526 232 527 l 463 526 q 396 730 396 635 q 484 884 396 825 q 741 942 572 942 q 920 897 849 942 q 990 757 990 852 z "},"'":{"ha":342,"x_min":49,"x_max":294,"o":"m 294 547 l 49 547 l 49 925 l 294 925 l 294 547 z "},"(":{"ha":600,"x_min":62,"x_max":607,"o":"m 471 -231 q 62 415 62 5 q 471 1061 62 825 l 607 925 q 396 415 396 720 q 607 -94 396 110 l 471 -231 z "},")":{"ha":600,"x_min":-7,"x_max":537,"o":"m -7 -94 q 204 415 204 110 q -7 925 204 720 l 129 1061 q 537 415 537 825 q 129 -231 537 5 l -7 -94 z "},"*":{"ha":677,"x_min":49,"x_max":629,"o":"m 629 703 l 354 647 l 627 591 l 529 424 l 346 632 l 436 370 l 241 370 l 332 632 l 149 424 l 52 591 l 323 647 l 49 703 l 146 871 l 332 657 l 241 925 l 436 925 l 346 657 l 532 871 l 629 703 z "},"+":{"ha":758,"x_min":56,"x_max":703,"o":"m 498 0 l 260 0 l 260 220 l 56 220 l 56 428 l 260 428 l 260 647 l 498 647 l 498 428 l 703 428 l 703 220 l 498 220 l 498 0 z "},",":{"ha":414,"x_min":49,"x_max":366,"o":"m 366 293 l 366 36 q 284 -166 366 -96 q 62 -236 203 -236 l 52 -147 q 186 0 186 -134 l 49 0 l 49 293 l 366 293 z "},"-":{"ha":635,"x_min":69,"x_max":567,"o":"m 567 253 l 69 253 l 69 488 l 567 488 l 567 253 z "},".":{"ha":414,"x_min":49,"x_max":366,"o":"m 366 0 l 49 0 l 49 293 l 366 293 l 366 0 z "},"/":{"ha":699,"x_min":0,"x_max":677,"o":"m 677 1007 l 257 -228 l 0 -228 l 421 1007 l 677 1007 z "},":":{"ha":427,"x_min":56,"x_max":372,"o":"m 372 0 l 56 0 l 56 252 l 372 252 l 372 0 m 372 334 l 56 334 l 56 585 l 372 585 l 372 334 z "},";":{"ha":427,"x_min":56,"x_max":372,"o":"m 372 252 l 372 36 q 291 -166 372 -96 q 69 -236 210 -236 l 58 -147 q 193 0 193 -134 l 56 0 l 56 252 l 372 252 m 372 334 l 56 334 l 56 585 l 372 585 l 372 334 z "},"<":{"ha":668,"x_min":41,"x_max":612,"o":"m 612 433 l 298 323 l 612 214 l 612 -14 l 41 244 l 41 403 l 612 661 l 612 433 z "},"=":{"ha":677,"x_min":56,"x_max":623,"o":"m 623 74 l 56 74 l 56 254 l 623 254 l 623 74 m 623 363 l 56 363 l 56 543 l 623 543 l 623 363 z "},">":{"ha":668,"x_min":56,"x_max":627,"o":"m 370 323 l 56 433 l 56 661 l 627 403 l 627 244 l 56 -14 l 56 214 l 370 323 z "},"?":{"ha":866,"x_min":35,"x_max":839,"o":"m 618 0 l 285 0 l 285 265 l 618 265 l 618 0 m 146 869 q 444 942 256 942 q 735 861 631 942 q 839 644 840 781 q 744 425 839 509 q 412 311 649 340 l 357 475 q 479 629 479 517 q 467 675 480 656 q 424 694 453 694 q 364 627 364 694 q 378 567 364 599 l 85 519 q 35 677 35 599 q 146 869 35 795 z "},"@":{"ha":1116,"x_min":41,"x_max":1075,"o":"m 577 553 q 544 513 557 553 q 530 434 530 473 q 551 395 530 395 q 584 436 571 395 q 597 515 597 477 q 577 553 597 553 m 489 705 q 600 656 561 705 q 637 528 637 607 l 637 519 l 699 665 l 867 665 l 821 403 q 818 386 818 389 q 851 355 818 355 q 909 411 884 355 q 935 539 935 467 q 840 747 935 674 q 580 821 745 821 q 302 724 415 821 q 189 456 189 627 q 292 193 189 286 q 581 99 395 99 q 949 186 768 99 l 991 83 q 570 -16 819 -16 q 181 117 320 -16 q 41 460 41 250 q 191 806 42 669 q 590 942 340 942 q 939 833 802 942 q 1075 545 1075 724 q 1014 328 1075 411 q 819 245 953 245 q 633 411 633 245 l 635 435 q 428 245 592 245 q 269 437 270 245 q 326 631 269 556 q 489 705 382 705 z "},"A":{"ha":1137,"x_min":14,"x_max":1131,"o":"m 528 647 l 425 326 l 631 326 l 528 647 m 787 925 l 1131 0 l 734 0 l 693 129 l 361 129 l 321 0 l 14 0 l 355 925 l 787 925 z "},"B":{"ha":996,"x_min":56,"x_max":982,"o":"m 598 260 q 621 320 621 283 q 595 378 621 357 q 521 400 570 400 l 431 400 l 431 236 l 528 236 q 598 260 575 236 m 507 538 q 573 563 555 538 q 591 617 591 587 q 572 668 591 647 q 514 689 553 689 l 431 689 l 431 538 l 507 538 m 895 409 q 939 378 895 409 q 982 240 982 347 q 899 66 982 133 q 667 0 817 0 l 56 0 l 56 925 l 648 925 q 879 865 805 925 q 953 715 953 804 q 642 471 953 500 l 660 471 q 895 409 808 471 z "},"C":{"ha":1019,"x_min":28,"x_max":991,"o":"m 559 675 q 454 615 490 675 q 419 463 420 555 q 570 250 419 250 q 718 404 694 250 l 991 335 q 862 86 983 189 q 539 -17 741 -17 q 155 114 282 -17 q 28 456 28 245 q 164 804 28 667 q 551 942 300 942 q 852 849 742 941 q 972 572 963 757 l 697 524 q 663 633 697 593 q 559 675 628 674 z "},"D":{"ha":1066,"x_min":56,"x_max":1047,"o":"m 672 463 q 632 617 672 554 q 505 681 592 680 l 431 681 l 431 244 l 505 244 q 632 308 591 244 q 672 463 673 372 m 916 796 q 1047 463 1047 667 q 916 129 1047 258 q 547 0 783 0 l 56 0 l 56 925 l 547 925 q 916 796 783 925 z "},"E":{"ha":913,"x_min":56,"x_max":865,"o":"m 865 0 l 56 0 l 56 925 l 857 925 l 857 672 l 431 672 l 431 572 l 765 572 l 765 364 l 431 364 l 431 253 l 865 253 l 865 0 z "},"F":{"ha":883,"x_min":56,"x_max":863,"o":"m 431 0 l 56 0 l 56 925 l 863 925 l 863 672 l 431 672 l 431 562 l 771 562 l 771 354 l 431 354 l 431 0 z "},"G":{"ha":1082,"x_min":25,"x_max":1034,"o":"m 602 330 l 602 475 l 1034 475 l 1034 0 l 835 0 l 803 143 q 695 31 775 79 q 515 -17 615 -17 q 153 113 281 -18 q 25 461 26 243 q 172 810 25 680 q 581 942 319 942 q 883 853 765 943 q 1007 591 1001 764 l 725 533 q 589 675 707 675 q 473 616 513 675 q 432 460 432 559 q 469 294 432 361 q 583 227 505 227 q 705 330 683 227 l 602 330 z "},"H":{"ha":1105,"x_min":56,"x_max":1050,"o":"m 1050 0 l 675 0 l 675 330 l 431 330 l 431 0 l 56 0 l 56 925 l 431 925 l 431 597 l 675 597 l 675 925 l 1050 925 l 1050 0 z "},"I":{"ha":500,"x_min":62,"x_max":437,"o":"m 437 0 l 62 0 l 62 925 l 437 925 l 437 0 z "},"J":{"ha":900,"x_min":29,"x_max":859,"o":"m 859 925 l 859 396 q 849 270 859 327 q 809 158 840 213 q 420 -17 715 -17 q 125 60 221 -17 q 29 262 29 136 q 140 503 29 388 l 359 415 q 330 319 330 362 q 401 252 330 252 q 484 355 484 252 l 484 925 l 859 925 z "},"K":{"ha":1095,"x_min":56,"x_max":1084,"o":"m 431 0 l 56 0 l 56 925 l 431 925 l 431 595 l 667 925 l 1075 925 l 800 549 l 1084 0 l 643 0 l 507 290 l 431 183 l 431 0 z "},"L":{"ha":854,"x_min":56,"x_max":823,"o":"m 823 0 l 56 0 l 56 925 l 431 925 l 431 250 l 823 250 l 823 0 z "},"M":{"ha":1385,"x_min":56,"x_max":1331,"o":"m 1331 0 l 956 0 l 956 574 l 775 0 l 532 0 l 347 574 l 347 0 l 56 0 l 56 925 l 511 925 l 665 482 l 806 925 l 1331 925 l 1331 0 z "},"N":{"ha":1119,"x_min":56,"x_max":1064,"o":"m 389 0 l 56 0 l 56 925 l 418 925 l 730 507 l 730 925 l 1064 925 l 1064 0 l 701 0 l 389 416 l 389 0 z "},"O":{"ha":1122,"x_min":25,"x_max":1097,"o":"m 673 310 q 691 340 673 310 q 708 463 708 370 q 673 615 708 555 q 561 675 639 675 q 449 615 483 675 q 414 463 415 555 q 449 310 414 370 q 562 250 484 250 q 673 310 639 250 m 956 803 q 1026 733 956 803 q 1097 463 1097 664 q 956 122 1097 261 q 561 -17 814 -17 q 167 122 308 -17 q 25 463 26 261 q 167 803 25 664 q 562 942 309 942 q 956 803 814 942 z "},"P":{"ha":1025,"x_min":56,"x_max":1018,"o":"m 538 486 q 617 513 591 486 q 643 577 643 539 q 614 639 643 615 q 538 663 585 663 l 431 663 l 431 486 l 538 486 m 589 925 q 911 840 805 925 q 1018 618 1018 755 q 916 401 1019 480 q 600 322 812 323 l 431 322 l 431 0 l 56 0 l 56 925 l 589 925 z "},"Q":{"ha":1122,"x_min":25,"x_max":1097,"o":"m 673 310 q 691 340 673 310 q 708 463 708 370 q 673 615 708 555 q 561 675 639 675 q 449 615 483 675 q 414 463 415 555 q 449 310 414 370 q 562 250 484 250 q 673 310 639 250 m 673 -241 q 446 -187 505 -241 q 387 -26 387 -133 l 387 4 q 119 174 214 49 q 25 463 25 300 q 167 803 25 664 q 562 942 309 942 q 956 803 814 942 q 1097 463 1097 664 q 1002 174 1097 300 q 733 3 907 47 l 733 -29 q 753 -81 733 -65 q 842 -96 774 -96 q 1000 -57 910 -96 l 1023 -174 q 673 -241 891 -241 z "},"R":{"ha":1109,"x_min":56,"x_max":1103,"o":"m 557 509 q 640 530 610 509 q 671 587 671 552 q 645 642 671 622 q 571 663 619 663 l 431 663 l 431 509 l 557 509 m 1046 675 q 977 508 1046 578 q 745 419 909 438 q 783 421 758 420 q 924 376 878 421 q 997 228 970 332 q 1021 140 1013 168 q 1103 0 1046 63 l 686 0 q 608 163 637 57 q 567 311 579 270 q 511 355 550 356 l 431 355 l 431 0 l 56 0 l 56 925 l 616 925 q 939 857 833 925 q 1046 675 1046 789 z "},"S":{"ha":997,"x_min":28,"x_max":966,"o":"m 966 301 q 852 68 966 153 q 511 -17 739 -17 q 253 19 380 -18 q 28 122 125 56 l 129 322 q 521 215 319 215 q 591 254 591 215 q 559 291 591 278 q 412 328 526 304 q 137 445 217 366 q 57 657 57 524 q 168 867 57 791 q 510 942 279 943 q 749 910 631 941 q 953 828 867 879 l 868 624 q 500 714 675 714 q 432 681 432 714 q 460 644 432 658 q 591 610 489 631 q 879 496 791 568 q 966 301 966 425 z "},"T":{"ha":975,"x_min":21,"x_max":954,"o":"m 954 647 l 675 647 l 675 0 l 300 0 l 300 647 l 21 647 l 21 925 l 954 925 l 954 647 z "},"U":{"ha":1033,"x_min":49,"x_max":985,"o":"m 985 372 q 847 64 985 162 q 534 -17 734 -17 q 112 151 227 -17 q 49 372 49 243 l 49 925 l 424 925 l 424 368 q 448 281 423 311 q 532 250 472 250 q 616 281 591 250 q 640 368 640 311 l 640 925 l 985 925 l 985 372 z "},"V":{"ha":1082,"x_min":7,"x_max":1078,"o":"m 1078 925 l 757 0 l 359 0 l 7 925 l 419 925 l 587 410 l 755 925 l 1078 925 z "},"W":{"ha":1516,"x_min":7,"x_max":1510,"o":"m 953 925 l 1074 493 l 1200 925 l 1510 925 l 1249 0 l 903 0 l 766 490 l 614 0 l 279 0 l 7 925 l 389 925 l 503 493 l 623 925 l 953 925 z "},"X":{"ha":1069,"x_min":7,"x_max":1069,"o":"m 351 0 l 12 0 l 330 450 l 7 925 l 421 925 l 566 697 l 715 925 l 1063 925 l 721 476 l 1069 0 l 646 0 l 505 211 l 351 0 z "},"Y":{"ha":1030,"x_min":7,"x_max":1023,"o":"m 701 0 l 326 0 l 326 326 l 7 925 l 400 925 l 536 623 l 676 925 l 1023 925 l 701 325 l 701 0 z "},"Z":{"ha":987,"x_min":49,"x_max":943,"o":"m 943 0 l 49 0 l 49 170 l 456 692 l 64 692 l 64 925 l 926 925 l 926 743 l 539 236 l 943 236 l 943 0 z "},"[":{"ha":544,"x_min":62,"x_max":503,"o":"m 503 -214 l 62 -214 l 62 1019 l 503 1019 l 503 880 l 396 880 l 396 -75 l 503 -75 l 503 -214 z "},"\\":{"ha":699,"x_min":21,"x_max":699,"o":"m 441 -228 l 21 1007 l 278 1007 l 699 -228 l 441 -228 z "},"]":{"ha":544,"x_min":41,"x_max":482,"o":"m 482 -214 l 41 -214 l 41 -75 l 149 -75 l 149 880 l 41 880 l 41 1019 l 482 1019 l 482 -214 z "},"^":{"ha":703,"x_min":14,"x_max":689,"o":"m 220 925 l 484 925 l 689 559 l 432 559 l 351 734 l 271 559 l 14 559 l 220 925 z "},"_":{"ha":729,"x_min":-1,"x_max":730,"o":"m 730 -197 l -1 -197 l -1 -81 l 730 -81 l 730 -197 z "},"`":{"ha":441,"x_min":35,"x_max":393,"o":"m 176 715 l 35 925 l 325 925 l 393 715 l 176 715 z "},"a":{"ha":890,"x_min":32,"x_max":873,"o":"m 444 187 l 444 229 q 366 175 365 220 q 404 139 366 139 q 444 187 444 138 m 221 -14 q 82 34 132 -14 q 32 164 32 81 q 323 335 32 335 q 443 328 374 335 l 443 452 q 414 489 443 489 q 385 452 385 489 q 395 408 385 433 l 82 342 q 53 449 53 397 q 152 603 53 545 q 435 661 251 661 q 712 597 620 661 q 804 395 804 534 l 804 193 q 833 150 804 151 q 873 160 858 151 l 873 43 q 787 0 846 15 q 669 -14 729 -15 q 556 20 608 -14 q 484 111 504 53 q 380 17 449 47 q 221 -14 311 -14 z "},"b":{"ha":891,"x_min":49,"x_max":871,"o":"m 498 218 q 504 234 498 218 q 510 323 510 250 q 499 427 510 396 q 459 458 488 458 q 420 427 431 458 q 410 323 410 396 q 420 218 410 250 q 458 187 431 187 q 498 218 486 187 m 603 661 q 804 567 738 662 q 871 324 871 472 q 793 81 871 176 q 568 -14 715 -14 q 326 160 379 -14 l 256 0 l 49 0 l 49 925 l 410 925 l 410 522 q 603 661 468 661 z "},"c":{"ha":770,"x_min":20,"x_max":745,"o":"m 465 400 q 429 460 465 460 q 380 323 380 460 q 429 187 380 187 q 469 277 469 187 l 469 283 l 737 257 q 745 203 744 233 q 659 47 745 109 q 418 -14 574 -14 q 20 323 19 -14 q 119 573 20 485 q 418 661 218 661 q 650 598 564 661 q 736 425 736 535 q 733 386 736 408 l 464 368 q 465 400 465 382 z "},"d":{"ha":891,"x_min":21,"x_max":843,"o":"m 473 431 q 435 458 464 458 q 393 428 406 458 q 382 320 381 397 q 395 215 382 243 q 435 187 407 187 q 473 216 464 187 q 481 324 481 245 q 473 431 481 403 m 21 323 q 87 567 21 472 q 285 661 154 662 q 404 623 353 661 q 482 522 456 584 l 482 925 l 843 925 l 843 0 l 633 0 l 566 160 q 469 34 534 82 q 305 -14 404 -14 q 140 38 206 -14 q 47 161 73 90 q 21 323 21 235 z "},"e":{"ha":800,"x_min":25,"x_max":765,"o":"m 471 414 q 430 489 471 489 q 386 378 389 489 l 468 378 q 471 414 471 406 m 441 174 q 479 215 479 174 q 475 239 479 226 l 760 212 q 765 167 765 190 q 404 -14 765 -14 q 25 323 25 -14 q 124 566 25 471 q 418 661 223 661 q 659 601 557 661 q 740 513 710 570 q 760 286 787 423 l 386 286 q 404 195 391 217 q 441 174 418 174 z "},"f":{"ha":585,"x_min":7,"x_max":587,"o":"m 464 755 q 416 705 418 755 q 437 647 416 675 l 554 647 l 554 510 l 452 510 l 452 0 l 90 0 l 90 510 l 7 510 l 7 647 l 90 647 q 81 724 81 680 q 152 882 81 825 q 357 939 223 939 q 587 848 492 939 l 513 734 q 464 755 490 755 z "},"g":{"ha":821,"x_min":-21,"x_max":838,"o":"m 411 366 q 460 442 460 365 q 412 519 460 519 q 365 442 365 519 q 411 366 365 365 m 463 -25 l 342 -25 q 288 -56 288 -25 q 409 -90 288 -90 q 530 -58 530 -90 q 463 -25 530 -25 m 411 660 q 578 640 504 660 q 583 664 583 651 q 529 699 583 699 l 583 815 q 615 818 600 818 q 697 793 667 818 q 728 718 728 768 q 661 608 728 652 q 772 446 772 549 q 677 284 772 343 q 411 225 582 225 q 258 239 322 225 q 248 215 248 231 q 288 192 248 191 l 475 192 q 741 138 643 192 q 838 -27 838 83 q 729 -190 838 -138 q 393 -241 621 -242 q -21 -122 -20 -241 q 47 -50 -20 -76 q 196 -21 115 -24 q 20 117 20 -1 q 72 205 20 171 q 199 257 125 240 q 53 441 53 314 q 147 601 53 541 q 411 660 241 661 z "},"h":{"ha":903,"x_min":49,"x_max":857,"o":"m 857 0 l 496 0 l 496 351 q 458 399 496 399 q 423 376 436 399 q 410 315 410 353 l 410 0 l 49 0 l 49 925 l 410 925 l 410 461 q 487 603 429 545 q 623 661 545 661 q 857 334 857 661 l 857 0 z "},"i":{"ha":458,"x_min":49,"x_max":410,"o":"m 410 0 l 49 0 l 49 647 l 410 647 l 410 0 m 410 693 l 49 693 l 49 925 l 410 925 l 410 693 z "},"j":{"ha":458,"x_min":-54,"x_max":410,"o":"m 410 693 l 49 693 l 49 925 l 410 925 l 410 693 m 49 647 l 410 647 l 410 11 q 347 -179 410 -117 q 142 -241 283 -241 q -54 -200 37 -241 l -50 -64 q -5 -68 -35 -68 q 37 -52 25 -68 q 49 -3 48 -35 l 49 647 z "},"k":{"ha":911,"x_min":49,"x_max":907,"o":"m 410 0 l 49 0 l 49 925 l 410 925 l 410 439 l 557 647 l 893 647 l 685 379 l 907 0 l 538 0 l 450 192 l 410 132 l 410 0 z "},"l":{"ha":458,"x_min":49,"x_max":410,"o":"m 410 0 l 49 0 l 49 925 l 410 925 l 410 0 z "},"m":{"ha":1347,"x_min":49,"x_max":1301,"o":"m 856 0 l 494 0 l 494 351 q 458 399 494 399 q 410 302 410 399 l 410 0 l 49 0 l 49 647 l 325 647 l 379 461 q 468 606 407 551 q 621 661 529 661 q 844 460 805 661 q 1067 661 909 661 q 1301 334 1301 661 l 1301 0 l 940 0 l 940 351 q 904 399 940 399 q 869 372 882 399 q 856 302 856 346 l 856 0 z "},"n":{"ha":903,"x_min":49,"x_max":857,"o":"m 857 0 l 496 0 l 496 351 q 458 399 496 399 q 410 302 410 399 l 410 0 l 49 0 l 49 647 l 325 647 l 379 461 q 469 606 407 551 q 623 661 530 661 q 857 334 857 661 l 857 0 z "},"o":{"ha":858,"x_min":17,"x_max":842,"o":"m 481 323 q 468 433 480 407 q 429 460 456 460 q 391 433 403 460 q 378 323 378 407 q 390 214 378 240 q 429 187 401 187 q 468 214 456 187 q 481 323 480 240 m 729 570 q 842 323 842 479 q 729 77 842 168 q 429 -14 616 -14 q 129 77 242 -14 q 17 323 16 168 q 129 570 17 479 q 429 661 241 661 q 729 570 616 661 z "},"p":{"ha":891,"x_min":49,"x_max":871,"o":"m 498 220 q 504 235 498 220 q 510 327 510 250 q 498 432 510 404 q 458 460 486 460 q 420 427 431 460 q 410 323 410 393 q 457 189 410 189 q 498 220 486 190 m 871 323 q 804 81 871 175 q 607 -14 738 -14 q 488 25 539 -14 q 410 125 436 64 l 410 -228 l 49 -228 l 49 647 l 258 647 l 326 488 q 422 613 357 566 q 586 661 487 661 q 752 610 685 661 q 845 486 819 559 q 871 323 871 412 z "},"q":{"ha":891,"x_min":21,"x_max":843,"o":"m 382 323 q 431 189 382 189 q 471 220 460 189 q 481 324 481 251 q 471 429 481 397 q 432 460 460 460 q 393 429 404 460 q 382 323 382 399 m 87 81 q 54 128 87 81 q 21 323 21 175 q 98 566 21 471 q 323 661 176 661 q 566 488 513 661 l 636 647 l 843 647 l 843 -228 l 482 -228 l 482 125 q 289 -14 424 -14 q 87 81 154 -14 z "},"r":{"ha":699,"x_min":49,"x_max":686,"o":"m 488 313 q 460 368 488 368 q 421 323 432 368 q 410 170 410 279 l 410 0 l 49 0 l 49 647 l 325 647 l 387 427 l 387 449 q 429 604 388 547 q 540 661 469 661 q 648 609 610 661 q 686 479 686 557 q 603 249 686 349 l 482 261 q 488 313 488 294 z "},"s":{"ha":713,"x_min":22,"x_max":694,"o":"m 648 342 q 671 318 648 342 q 694 203 694 294 q 613 49 694 111 q 372 -14 532 -14 q 22 87 179 -14 l 96 248 q 195 195 134 218 q 301 171 256 171 q 347 193 347 171 q 314 220 347 212 q 108 304 164 254 q 52 450 52 355 q 136 603 52 545 q 389 661 221 661 q 690 579 557 661 l 627 421 q 528 461 586 445 q 434 476 469 477 q 399 460 399 476 q 414 441 399 449 q 494 418 431 435 q 648 342 602 389 z "},"t":{"ha":589,"x_min":3,"x_max":564,"o":"m 79 239 l 79 510 l 3 510 l 3 647 l 79 647 l 79 833 l 440 857 l 440 647 l 559 647 l 559 510 l 440 510 l 440 225 q 452 176 439 192 q 496 160 464 160 q 559 170 529 160 l 564 33 q 345 -14 483 -14 q 142 49 206 -14 q 79 239 79 111 z "},"u":{"ha":903,"x_min":46,"x_max":854,"o":"m 46 647 l 407 647 l 407 296 q 444 249 407 248 q 493 345 493 249 l 493 647 l 854 647 l 854 0 l 578 0 l 524 186 q 434 41 496 96 q 281 -14 372 -14 q 46 314 46 -14 l 46 647 z "},"v":{"ha":826,"x_min":-7,"x_max":838,"o":"m 600 0 l 229 0 l -7 647 l 326 647 l 433 279 l 541 647 l 838 647 l 600 0 z "},"w":{"ha":1230,"x_min":-7,"x_max":1242,"o":"m 536 0 l 208 0 l -7 647 l 328 647 l 392 292 l 484 647 l 772 647 l 857 292 l 914 647 l 1242 647 l 1026 0 l 713 0 l 624 278 l 536 0 z "},"x":{"ha":830,"x_min":7,"x_max":823,"o":"m 340 647 l 415 463 l 490 647 l 817 647 l 636 326 l 823 0 l 490 0 l 415 171 l 340 0 l 7 0 l 195 326 l 14 647 l 340 647 z "},"y":{"ha":814,"x_min":-7,"x_max":828,"o":"m 420 -228 q 285 -241 373 -241 q 109 -205 197 -241 l 114 -71 q 174 -78 142 -77 q 260 -22 243 -78 l -7 647 l 326 647 l 427 271 l 530 647 l 828 647 l 608 14 q 561 -100 583 -58 q 504 -178 538 -142 q 420 -228 469 -213 z "},"z":{"ha":758,"x_min":41,"x_max":722,"o":"m 43 453 l 43 647 l 715 647 l 715 453 l 501 195 l 722 195 l 722 0 l 41 0 l 41 138 l 328 453 l 43 453 z "},"{":{"ha":574,"x_min":49,"x_max":547,"o":"m 457 158 l 457 -31 q 470 -87 457 -69 q 519 -106 483 -106 l 547 -106 l 547 -214 l 368 -214 q 186 -154 250 -214 q 123 18 123 -94 l 123 314 q 82 355 123 355 l 49 355 l 49 450 l 82 450 q 123 492 123 450 l 123 787 q 186 960 123 900 q 368 1019 250 1019 l 547 1019 l 547 911 l 519 911 q 470 893 484 911 q 457 836 457 875 l 457 647 q 419 480 457 541 q 272 403 381 419 q 419 325 381 386 q 457 158 457 264 z "},"|":{"ha":322,"x_min":77,"x_max":245,"o":"m 245 -228 l 77 -228 l 77 1076 l 245 1076 l 245 -228 z "},"}":{"ha":574,"x_min":28,"x_max":526,"o":"m 118 -31 l 118 158 q 156 325 118 264 q 302 403 194 386 q 156 481 194 420 q 118 647 118 542 l 118 836 q 105 893 118 875 q 56 911 92 911 l 28 911 l 28 1019 l 207 1019 q 388 960 325 1019 q 452 787 451 900 l 452 492 q 493 450 452 450 l 526 450 l 526 355 l 493 355 q 452 314 452 355 l 452 18 q 388 -154 452 -94 q 207 -214 324 -214 l 28 -214 l 28 -106 l 56 -106 q 105 -87 92 -106 q 118 -31 118 -69 z "},"~":{"ha":619,"x_min":31,"x_max":589,"o":"m 452 176 q 387 187 414 176 q 300 235 359 198 q 216 271 241 271 q 180 231 180 271 q 196 180 180 203 l 89 180 q 31 317 31 241 q 69 441 31 393 q 178 488 107 488 q 319 436 248 488 q 354 410 342 418 q 371 399 366 401 q 384 392 376 396 q 403 389 391 388 q 435 423 435 389 q 418 484 435 457 l 525 484 q 589 323 589 417 q 553 218 589 260 q 452 176 518 176 z "}," ":{"ha":284,"x_min":0,"x_max":0,"o":""},"¡":{"ha":472,"x_min":56,"x_max":416,"o":"m 69 647 l 403 647 l 403 382 l 69 382 l 69 647 m 416 -228 l 56 -228 l 56 -3 l 180 325 l 292 325 l 416 -3 l 416 -228 z "},"¢":{"ha":863,"x_min":62,"x_max":802,"o":"m 390 -28 l 390 115 q 144 220 225 134 q 62 448 62 306 q 146 677 62 590 q 390 782 229 764 l 390 925 l 529 925 l 529 783 q 722 710 651 772 q 793 549 792 648 q 790 511 793 539 l 521 493 q 522 519 522 501 q 482 585 522 585 q 424 449 424 585 q 482 313 424 313 q 526 403 527 313 l 526 408 l 794 382 q 802 328 801 351 q 731 182 802 241 q 529 113 661 122 l 529 -28 l 390 -28 z "},"£":{"ha":1109,"x_min":7,"x_max":1084,"o":"m 164 155 q 236 106 164 106 q 338 168 308 106 q 236 204 270 204 q 182 191 202 204 q 164 155 163 178 m 656 717 q 591 633 591 718 q 648 493 591 590 q 659 475 652 486 l 793 475 l 793 376 l 685 376 q 686 351 686 368 q 606 154 686 235 q 755 110 693 109 q 807 125 787 110 q 827 164 827 140 q 782 231 827 204 l 896 386 l 913 386 q 1039 344 993 386 q 1084 229 1085 302 q 1006 56 1085 126 q 776 -14 928 -14 q 501 61 624 -14 q 216 -14 386 -14 q 64 30 122 -14 q 7 146 7 73 q 61 266 7 218 q 222 314 115 313 q 357 288 290 314 q 332 376 353 340 l 164 376 l 164 475 l 267 475 q 208 643 208 568 q 320 845 208 779 q 636 911 432 911 q 906 848 794 911 q 1018 672 1018 785 q 976 567 1018 617 q 868 493 934 517 l 697 603 q 717 655 717 627 q 656 717 716 717 z "},"¤":{"ha":802,"x_min":74,"x_max":729,"o":"m 358 345 q 364 331 358 345 q 401 317 370 317 q 445 345 433 317 q 457 460 457 374 q 444 576 457 546 q 401 607 430 607 q 358 578 370 607 q 346 461 346 549 q 358 345 346 374 m 653 664 q 725 461 725 581 q 653 258 725 342 l 729 183 l 632 87 l 541 179 q 401 154 481 154 q 262 179 322 154 l 171 87 l 74 183 l 149 258 q 78 462 78 340 q 149 664 78 583 l 74 741 l 171 836 l 262 743 q 400 768 322 768 q 539 743 478 768 l 632 836 l 729 741 l 653 664 z "},"¥":{"ha":981,"x_min":-4,"x_max":986,"o":"m 885 363 l 694 363 l 672 325 l 672 296 l 885 296 l 885 153 l 672 153 l 672 0 l 309 0 l 309 153 l 96 153 l 96 296 l 309 296 l 309 326 l 289 363 l 96 363 l 96 505 l 210 505 l -4 897 l 389 897 l 511 555 l 639 897 l 986 897 l 772 505 l 885 505 l 885 363 z "},"¦":{"ha":322,"x_min":77,"x_max":245,"o":"m 245 1076 l 245 511 l 77 511 l 77 1076 l 245 1076 m 245 -228 l 77 -228 l 77 338 l 245 338 l 245 -228 z "},"§":{"ha":913,"x_min":35,"x_max":865,"o":"m 370 421 q 349 374 349 396 q 382 336 349 351 q 479 308 415 321 q 579 286 543 294 q 593 324 593 304 q 578 357 593 345 q 524 380 563 369 l 370 421 m 854 396 q 827 298 854 346 q 746 225 799 251 q 865 35 865 160 q 788 -151 865 -73 q 661 -217 746 -193 q 239 -209 477 -271 q 35 -121 115 -176 l 118 43 q 464 -40 292 -41 q 539 -7 539 -40 q 505 25 540 12 q 370 58 469 39 q 130 154 200 93 q 60 313 60 215 q 107 421 60 376 q 218 475 155 466 q 106 564 140 513 q 72 690 73 616 q 465 942 72 942 q 673 915 570 942 q 851 843 776 888 l 778 665 q 457 743 610 743 q 399 715 399 743 q 422 685 399 696 q 538 653 446 674 q 784 558 713 613 q 854 396 854 503 z "},"¨":{"ha":652,"x_min":49,"x_max":604,"o":"m 290 720 l 49 720 l 49 925 l 290 925 l 290 720 m 604 720 l 357 720 l 357 925 l 604 925 l 604 720 z "},"©":{"ha":1030,"x_min":35,"x_max":996,"o":"m 541 567 q 467 463 467 567 q 543 359 467 359 q 614 435 603 359 l 739 401 q 674 277 728 323 q 510 231 620 231 q 345 300 401 231 q 289 461 289 369 q 349 625 289 553 q 526 696 410 696 q 675 647 618 696 q 736 519 733 598 l 604 493 q 587 547 604 526 q 541 567 569 567 m 777 191 q 831 244 777 191 q 885 463 885 297 q 777 734 885 628 q 515 840 669 840 q 254 734 361 840 q 146 463 146 628 q 254 191 146 297 q 515 85 361 85 q 777 191 669 85 m 860 802 q 928 732 860 802 q 996 463 996 663 q 860 123 996 262 q 515 -17 724 -17 q 171 123 307 -17 q 35 463 35 262 q 171 802 35 663 q 515 942 307 942 q 860 802 724 942 z "},"ª":{"ha":493,"x_min":39,"x_max":468,"o":"m 249 701 l 249 721 q 208 693 209 715 q 227 675 208 675 q 249 701 249 675 m 468 627 q 362 597 433 597 q 269 661 292 597 q 138 597 235 597 q 66 623 93 597 q 39 688 39 648 q 191 775 39 775 q 249 772 210 775 l 249 835 q 233 854 249 854 q 218 838 218 854 q 224 812 218 822 l 64 779 q 49 833 48 807 q 99 913 49 884 q 246 942 150 942 q 388 909 342 941 q 433 806 433 876 l 433 703 q 449 681 433 680 q 468 686 458 681 l 468 627 z "},"«":{"ha":1055,"x_min":49,"x_max":986,"o":"m 986 408 l 765 323 l 986 239 l 986 29 l 542 231 l 542 416 l 986 618 l 986 408 m 493 408 l 272 323 l 493 239 l 493 29 l 49 231 l 49 416 l 493 618 l 493 408 z "},"¬":{"ha":769,"x_min":56,"x_max":703,"o":"m 703 83 l 464 83 l 464 302 l 56 302 l 56 511 l 703 511 l 703 83 z "},"®":{"ha":565,"x_min":35,"x_max":530,"o":"m 289 710 q 311 725 311 709 q 290 741 311 741 l 262 741 l 262 710 l 289 710 m 386 743 q 325 692 386 702 l 334 692 q 376 655 367 692 q 395 608 386 618 l 315 608 q 298 643 307 618 q 290 673 290 668 q 279 679 289 679 l 262 679 l 262 608 l 187 608 l 187 793 l 300 793 q 386 743 386 793 m 159 821 q 134 796 159 821 q 110 699 110 770 q 159 576 110 627 q 283 525 208 525 q 408 576 361 525 q 456 699 456 627 q 408 821 456 770 q 283 872 359 872 q 159 821 208 872 m 35 699 q 102 869 34 798 q 283 941 170 941 q 464 869 397 941 q 530 699 530 798 q 464 528 530 600 q 283 456 397 456 q 102 528 170 456 q 35 699 34 600 z "},"¯":{"ha":634,"x_min":49,"x_max":586,"o":"m 586 726 l 49 726 l 49 904 l 586 904 l 586 726 z "},"°":{"ha":425,"x_min":41,"x_max":383,"o":"m 257 728 q 266 738 257 728 q 275 779 275 747 q 257 829 275 810 q 212 848 239 848 q 168 829 186 848 q 150 779 151 810 q 168 728 150 747 q 213 709 187 709 q 257 728 239 709 m 332 895 q 358 872 332 895 q 383 779 383 848 q 332 663 383 710 q 212 616 281 616 q 92 663 142 616 q 41 779 41 710 q 92 895 41 848 q 212 942 142 942 q 332 895 281 942 z "},"±":{"ha":758,"x_min":56,"x_max":703,"o":"m 56 0 l 56 183 l 260 183 l 260 302 l 56 302 l 56 497 l 260 497 l 260 689 l 498 689 l 498 497 l 703 497 l 703 302 l 498 302 l 498 183 l 703 183 l 703 0 l 56 0 z "},"²":{"ha":430,"x_min":49,"x_max":382,"o":"m 382 250 l 49 250 l 49 543 l 382 543 l 382 250 z "},"³":{"ha":430,"x_min":49,"x_max":382,"o":"m 382 250 l 49 250 l 49 543 l 382 543 l 382 250 z "},"´":{"ha":441,"x_min":49,"x_max":407,"o":"m 407 925 l 265 715 l 49 715 l 117 925 l 407 925 z "},"µ":{"ha":903,"x_min":46,"x_max":854,"o":"m 46 -228 l 46 647 l 407 647 l 407 296 q 444 249 407 248 q 493 345 493 249 l 493 647 l 854 647 l 854 0 l 578 0 l 524 186 q 407 21 488 73 l 407 -228 l 46 -228 z "},"¶":{"ha":1008,"x_min":28,"x_max":946,"o":"m 445 688 q 403 583 403 647 q 448 479 403 518 q 549 439 492 439 l 549 728 q 445 688 488 728 m 789 0 l 789 728 l 705 728 l 705 0 l 549 0 l 549 267 q 174 349 321 267 q 28 582 28 432 q 71 736 28 669 q 357 905 152 859 q 554 925 450 925 l 946 925 l 946 0 l 789 0 z "},"·":{"ha":430,"x_min":49,"x_max":382,"o":"m 382 250 l 49 250 l 49 543 l 382 543 l 382 250 z "},"¸":{"ha":447,"x_min":56,"x_max":406,"o":"m 406 -136 q 231 -241 406 -242 q 56 -204 117 -241 l 74 -150 q 148 -165 110 -165 q 186 -140 186 -165 q 150 -114 186 -114 q 98 -117 114 -114 l 155 4 l 233 4 l 191 -89 q 288 -50 231 -50 q 375 -73 345 -50 q 406 -136 406 -96 z "},"¹":{"ha":430,"x_min":49,"x_max":382,"o":"m 382 250 l 49 250 l 49 543 l 382 543 l 382 250 z "},"º":{"ha":462,"x_min":21,"x_max":441,"o":"m 252 714 q 258 770 258 728 q 252 825 258 811 q 231 839 245 838 q 203 770 203 839 q 231 700 203 701 q 252 714 244 700 m 384 895 q 413 872 384 895 q 441 770 441 849 q 384 644 441 690 q 231 597 326 597 q 78 644 135 597 q 21 770 21 690 q 78 895 21 849 q 231 942 135 941 q 384 895 326 941 z "},"»":{"ha":1055,"x_min":69,"x_max":1007,"o":"m 290 323 l 69 408 l 69 618 l 514 416 l 514 231 l 69 29 l 69 239 l 290 323 m 783 323 l 562 408 l 562 618 l 1007 416 l 1007 231 l 562 29 l 562 239 l 783 323 z "},"¼":{"ha":430,"x_min":49,"x_max":382,"o":"m 382 250 l 49 250 l 49 543 l 382 543 l 382 250 z "},"½":{"ha":430,"x_min":49,"x_max":382,"o":"m 382 250 l 49 250 l 49 543 l 382 543 l 382 250 z "},"¾":{"ha":430,"x_min":49,"x_max":382,"o":"m 382 250 l 49 250 l 49 543 l 382 543 l 382 250 z "},"¿":{"ha":865,"x_min":28,"x_max":829,"o":"m 262 647 l 596 647 l 596 382 l 262 382 l 262 647 m 722 -178 q 425 -241 613 -241 q 132 -168 236 -241 q 28 34 27 -94 q 139 242 28 161 q 454 336 250 322 l 510 172 q 418 123 449 149 q 387 64 387 97 q 443 -8 387 -9 q 498 53 498 -8 q 492 96 498 71 l 785 143 q 829 -5 829 75 q 722 -178 829 -115 z "},"À":{"ha":1137,"x_min":14,"x_max":1131,"o":"m 436 986 l 318 1158 l 611 1158 l 671 986 l 436 986 m 528 647 l 425 326 l 631 326 l 528 647 m 787 925 l 1131 0 l 734 0 l 693 129 l 361 129 l 321 0 l 14 0 l 355 925 l 787 925 z "},"Á":{"ha":1137,"x_min":14,"x_max":1131,"o":"m 807 1158 l 671 986 l 436 986 l 493 1158 l 807 1158 m 528 647 l 425 326 l 631 326 l 528 647 m 787 925 l 1131 0 l 734 0 l 693 129 l 361 129 l 321 0 l 14 0 l 355 925 l 787 925 z "},"Â":{"ha":1137,"x_min":14,"x_max":1131,"o":"m 743 1149 l 846 986 l 608 986 l 572 1078 l 538 986 l 300 986 l 400 1149 l 743 1149 m 528 647 l 425 326 l 631 326 l 528 647 m 787 925 l 1131 0 l 734 0 l 693 129 l 361 129 l 321 0 l 14 0 l 355 925 l 787 925 z "},"Ã":{"ha":1137,"x_min":14,"x_max":1131,"o":"m 814 1092 q 780 1010 814 1043 q 697 977 746 977 q 564 1006 648 977 q 457 1035 480 1035 q 433 1019 434 1035 q 441 1000 433 1011 l 380 962 q 307 1084 307 1015 q 341 1160 307 1129 q 429 1190 375 1190 q 560 1160 484 1190 q 659 1131 636 1131 q 682 1153 682 1131 q 669 1178 682 1167 l 746 1214 q 814 1092 814 1169 m 528 647 l 425 326 l 631 326 l 528 647 m 787 925 l 1131 0 l 734 0 l 693 129 l 361 129 l 321 0 l 14 0 l 355 925 l 787 925 z "},"Ä":{"ha":1137,"x_min":14,"x_max":1131,"o":"m 526 993 l 265 993 l 265 1173 l 526 1173 l 526 993 m 863 993 l 596 993 l 596 1173 l 863 1173 l 863 993 m 528 647 l 425 326 l 631 326 l 528 647 m 787 925 l 1131 0 l 734 0 l 693 129 l 361 129 l 321 0 l 14 0 l 355 925 l 787 925 z "},"Å":{"ha":1137,"x_min":14,"x_max":1131,"o":"m 611 1028 q 568 1076 611 1077 q 525 1028 525 1077 q 568 979 525 979 q 611 1028 612 979 m 528 647 l 425 326 l 631 326 l 528 647 m 701 1133 q 757 1030 757 1092 q 700 925 757 968 l 787 925 l 1131 0 l 734 0 l 693 129 l 361 129 l 321 0 l 14 0 l 355 925 l 436 925 q 379 1029 379 967 q 435 1132 379 1092 q 568 1172 492 1172 q 701 1133 646 1172 z "},"Æ":{"ha":1483,"x_min":14,"x_max":1435,"o":"m 528 647 l 425 326 l 631 326 l 528 647 m 1426 925 l 1426 676 l 879 676 l 924 557 l 1335 557 l 1335 376 l 990 376 l 1038 249 l 1435 249 l 1435 0 l 734 0 l 693 129 l 361 129 l 321 0 l 14 0 l 355 925 l 1426 925 z "},"Ç":{"ha":1019,"x_min":28,"x_max":991,"o":"m 751 -136 q 576 -241 751 -242 q 401 -204 463 -241 l 419 -150 q 494 -165 456 -165 q 532 -140 532 -165 q 496 -114 532 -114 q 444 -117 460 -114 l 492 -16 q 143 126 258 -3 q 28 461 28 255 q 164 804 28 667 q 551 942 300 942 q 852 849 742 941 q 972 572 962 757 l 697 524 q 663 633 697 593 q 559 675 628 674 q 454 615 490 675 q 419 463 420 555 q 570 250 419 250 q 718 404 694 250 l 991 335 q 871 94 983 194 q 570 -16 758 -7 l 536 -89 q 633 -50 576 -50 q 721 -73 690 -50 q 751 -136 751 -96 z "},"È":{"ha":913,"x_min":56,"x_max":865,"o":"m 350 986 l 232 1158 l 525 1158 l 585 986 l 350 986 m 865 0 l 56 0 l 56 925 l 857 925 l 857 672 l 431 672 l 431 572 l 765 572 l 765 364 l 431 364 l 431 253 l 865 253 l 865 0 z "},"É":{"ha":913,"x_min":56,"x_max":865,"o":"m 694 1158 l 558 986 l 323 986 l 380 1158 l 694 1158 m 865 0 l 56 0 l 56 925 l 857 925 l 857 672 l 431 672 l 431 572 l 765 572 l 765 364 l 431 364 l 431 253 l 865 253 l 865 0 z "},"Ê":{"ha":913,"x_min":56,"x_max":865,"o":"m 632 1149 l 734 986 l 497 986 l 461 1078 l 427 986 l 189 986 l 289 1149 l 632 1149 m 865 0 l 56 0 l 56 925 l 857 925 l 857 672 l 431 672 l 431 572 l 765 572 l 765 364 l 431 364 l 431 253 l 865 253 l 865 0 z "},"Ë":{"ha":913,"x_min":56,"x_max":865,"o":"m 415 993 l 154 993 l 154 1173 l 415 1173 l 415 993 m 751 993 l 485 993 l 485 1173 l 751 1173 l 751 993 m 865 0 l 56 0 l 56 925 l 857 925 l 857 672 l 431 672 l 431 572 l 765 572 l 765 364 l 431 364 l 431 253 l 865 253 l 865 0 z "},"Ì":{"ha":500,"x_min":21,"x_max":437,"o":"m 139 986 l 21 1158 l 314 1158 l 374 986 l 139 986 m 437 0 l 62 0 l 62 925 l 437 925 l 437 0 z "},"Í":{"ha":500,"x_min":62,"x_max":501,"o":"m 501 1158 l 366 986 l 131 986 l 187 1158 l 501 1158 m 437 0 l 62 0 l 62 925 l 437 925 l 437 0 z "},"Î":{"ha":500,"x_min":-22,"x_max":524,"o":"m 421 1149 l 524 986 l 286 986 l 250 1078 l 215 986 l -22 986 l 78 1149 l 421 1149 m 437 0 l 62 0 l 62 925 l 437 925 l 437 0 z "},"Ï":{"ha":500,"x_min":-49,"x_max":549,"o":"m 212 993 l -49 993 l -49 1173 l 212 1173 l 212 993 m 549 993 l 282 993 l 282 1173 l 549 1173 l 549 993 m 437 0 l 62 0 l 62 925 l 437 925 l 437 0 z "},"Ð":{"ha":1126,"x_min":41,"x_max":1107,"o":"m 732 463 q 692 617 732 554 q 566 681 652 680 l 490 681 l 490 526 l 611 526 l 611 400 l 490 400 l 490 244 l 566 244 q 692 308 652 244 q 732 463 732 372 m 41 400 l 41 526 l 115 526 l 115 925 l 607 925 q 975 796 843 925 q 1107 463 1107 667 q 975 129 1107 258 q 607 0 843 0 l 115 0 l 115 400 l 41 400 z "},"Ñ":{"ha":1119,"x_min":56,"x_max":1064,"o":"m 807 1092 q 773 1010 807 1043 q 690 977 739 977 q 557 1006 640 977 q 450 1035 473 1035 q 427 1019 426 1035 q 435 1000 427 1011 l 374 962 q 300 1084 300 1015 q 334 1160 300 1129 q 423 1190 368 1190 q 553 1160 479 1190 q 651 1131 628 1131 q 675 1153 674 1131 q 663 1178 675 1167 l 739 1214 q 807 1092 807 1169 m 389 0 l 56 0 l 56 925 l 418 925 l 730 507 l 730 925 l 1064 925 l 1064 0 l 701 0 l 389 416 l 389 0 z "},"Ò":{"ha":1122,"x_min":25,"x_max":1097,"o":"m 436 986 l 318 1158 l 611 1158 l 671 986 l 436 986 m 673 310 q 691 340 673 310 q 708 463 708 370 q 673 615 708 555 q 561 675 639 675 q 449 615 483 675 q 414 463 415 555 q 449 310 414 370 q 562 250 484 250 q 673 310 639 250 m 956 803 q 1026 733 956 803 q 1097 463 1097 664 q 956 122 1097 261 q 561 -17 814 -17 q 167 122 308 -17 q 25 463 26 261 q 167 803 25 664 q 562 942 309 942 q 956 803 814 942 z "},"Ó":{"ha":1122,"x_min":25,"x_max":1097,"o":"m 806 1158 l 669 986 l 435 986 l 492 1158 l 806 1158 m 673 310 q 691 340 673 310 q 708 463 708 370 q 673 615 708 555 q 561 675 639 675 q 449 615 483 675 q 414 463 415 555 q 449 310 414 370 q 562 250 484 250 q 673 310 639 250 m 956 803 q 1026 733 956 803 q 1097 463 1097 664 q 956 122 1097 261 q 561 -17 814 -17 q 167 122 308 -17 q 25 463 26 261 q 167 803 25 664 q 562 942 309 942 q 956 803 814 942 z "},"Ô":{"ha":1122,"x_min":25,"x_max":1097,"o":"m 732 1149 l 835 986 l 597 986 l 561 1078 l 526 986 l 289 986 l 389 1149 l 732 1149 m 673 310 q 691 340 673 310 q 708 463 708 370 q 673 615 708 555 q 561 675 639 675 q 449 615 483 675 q 414 463 415 555 q 449 310 414 370 q 562 250 484 250 q 673 310 639 250 m 956 803 q 1026 733 956 803 q 1097 463 1097 664 q 956 122 1097 261 q 561 -17 814 -17 q 167 122 308 -17 q 25 463 26 261 q 167 803 25 664 q 562 942 309 942 q 956 803 814 942 z "},"Õ":{"ha":1122,"x_min":25,"x_max":1097,"o":"m 768 1010 q 751 993 768 1010 q 684 977 734 977 q 551 1006 635 977 q 444 1035 468 1035 q 421 1019 420 1035 q 429 1000 421 1011 l 368 962 q 294 1084 294 1015 q 328 1160 294 1129 q 418 1190 362 1190 q 548 1160 473 1190 q 646 1131 623 1131 q 669 1153 669 1131 q 657 1178 669 1167 l 733 1214 q 802 1092 801 1169 q 768 1010 802 1043 m 673 310 q 691 340 673 310 q 708 463 708 370 q 673 615 708 555 q 561 675 639 675 q 449 615 483 675 q 414 463 415 555 q 449 310 414 370 q 562 250 484 250 q 673 310 639 250 m 956 803 q 1026 733 956 803 q 1097 463 1097 664 q 956 122 1097 261 q 561 -17 814 -17 q 167 122 308 -17 q 25 463 26 261 q 167 803 25 664 q 562 942 309 942 q 956 803 814 942 z "},"Ö":{"ha":1122,"x_min":25,"x_max":1097,"o":"m 524 993 l 262 993 l 262 1173 l 524 1173 l 524 993 m 860 993 l 593 993 l 593 1173 l 860 1173 l 860 993 m 673 310 q 691 340 673 310 q 708 463 708 370 q 673 615 708 555 q 561 675 639 675 q 449 615 483 675 q 414 463 415 555 q 449 310 414 370 q 562 250 484 250 q 673 310 639 250 m 956 803 q 1026 733 956 803 q 1097 463 1097 664 q 956 122 1097 261 q 561 -17 814 -17 q 167 122 308 -17 q 25 463 26 261 q 167 803 25 664 q 562 942 309 942 q 956 803 814 942 z "},"×":{"ha":688,"x_min":41,"x_max":647,"o":"m 189 5 l 41 153 l 197 309 l 41 464 l 189 611 l 345 456 l 500 611 l 647 464 l 492 309 l 647 153 l 500 5 l 345 161 l 189 5 z "},"Ø":{"ha":1122,"x_min":25,"x_max":1097,"o":"m 708 463 q 701 536 708 497 l 447 313 q 561 250 483 250 q 673 310 639 250 q 708 463 708 370 m 414 463 q 421 387 414 427 l 675 612 q 559 675 636 675 q 448 615 483 675 q 414 463 414 555 m 144 144 q 25 469 25 275 q 167 803 25 663 q 561 942 309 942 q 922 831 779 942 l 1048 942 l 1097 886 l 978 781 q 1097 456 1097 650 q 956 122 1097 262 q 561 -17 814 -17 q 200 93 341 -17 l 75 -17 l 25 39 l 144 144 z "},"Ù":{"ha":1033,"x_min":49,"x_max":985,"o":"m 412 986 l 294 1158 l 587 1158 l 647 986 l 412 986 m 985 372 q 847 64 985 162 q 534 -17 734 -17 q 112 151 227 -17 q 49 372 49 243 l 49 925 l 424 925 l 424 368 q 448 281 423 311 q 532 250 472 250 q 616 281 591 250 q 640 368 640 311 l 640 925 l 985 925 l 985 372 z "},"Ú":{"ha":1033,"x_min":49,"x_max":985,"o":"m 774 1158 l 637 986 l 403 986 l 460 1158 l 774 1158 m 985 372 q 847 64 985 162 q 534 -17 734 -17 q 112 151 227 -17 q 49 372 49 243 l 49 925 l 424 925 l 424 368 q 448 281 423 311 q 532 250 472 250 q 616 281 591 250 q 640 368 640 311 l 640 925 l 985 925 l 985 372 z "},"Û":{"ha":1033,"x_min":49,"x_max":985,"o":"m 705 1149 l 808 986 l 571 986 l 534 1078 l 500 986 l 262 986 l 363 1149 l 705 1149 m 985 372 q 847 64 985 162 q 534 -17 734 -17 q 112 151 227 -17 q 49 372 49 243 l 49 925 l 424 925 l 424 368 q 448 281 423 311 q 532 250 472 250 q 616 281 591 250 q 640 368 640 311 l 640 925 l 985 925 l 985 372 z "},"Ü":{"ha":1033,"x_min":49,"x_max":985,"o":"m 496 993 l 235 993 l 235 1173 l 496 1173 l 496 993 m 832 993 l 566 993 l 566 1173 l 832 1173 l 832 993 m 985 372 q 847 64 985 162 q 534 -17 734 -17 q 112 151 227 -17 q 49 372 49 243 l 49 925 l 424 925 l 424 368 q 448 281 423 311 q 532 250 472 250 q 616 281 591 250 q 640 368 640 311 l 640 925 l 985 925 l 985 372 z "},"Ý":{"ha":1030,"x_min":7,"x_max":1023,"o":"m 782 1158 l 646 986 l 411 986 l 468 1158 l 782 1158 m 701 0 l 326 0 l 326 326 l 7 925 l 400 925 l 536 623 l 676 925 l 1023 925 l 701 325 l 701 0 z "},"Þ":{"ha":1025,"x_min":56,"x_max":1018,"o":"m 538 334 q 617 360 591 334 q 643 425 643 387 q 614 486 643 463 q 538 510 585 510 l 431 510 l 431 334 l 538 334 m 589 772 q 911 688 805 772 q 1018 465 1018 603 q 916 248 1019 327 q 600 170 812 170 l 431 170 l 431 0 l 56 0 l 56 925 l 431 925 l 431 772 l 589 772 z "},"ß":{"ha":1065,"x_min":41,"x_max":1051,"o":"m 41 589 q 481 939 41 939 q 922 694 922 939 q 876 572 922 640 q 863 553 872 567 q 844 523 854 540 q 833 481 833 507 q 850 437 834 454 q 926 396 867 420 q 1051 220 1051 345 q 970 52 1051 118 q 726 -14 888 -14 q 454 50 564 -14 l 503 207 q 647 171 590 171 q 704 192 704 171 q 671 220 704 205 q 521 304 564 264 q 478 424 478 345 q 533 553 477 477 q 589 670 589 629 q 496 755 589 755 q 403 648 403 755 l 403 0 l 41 0 l 41 589 z "},"à":{"ha":890,"x_min":32,"x_max":873,"o":"m 325 715 l 183 925 l 473 925 l 542 715 l 325 715 m 444 187 l 444 229 q 366 175 365 220 q 404 139 366 139 q 444 187 444 138 m 221 -14 q 82 34 132 -14 q 32 164 32 81 q 323 335 32 335 q 443 328 374 335 l 443 452 q 414 489 443 489 q 385 452 385 489 q 395 408 385 433 l 82 342 q 53 449 53 397 q 152 603 53 545 q 435 661 251 661 q 712 597 620 661 q 804 395 804 534 l 804 193 q 833 150 804 151 q 873 160 858 151 l 873 43 q 787 0 846 15 q 669 -14 729 -15 q 556 20 608 -14 q 484 111 504 53 q 380 17 449 47 q 221 -14 311 -14 z "},"á":{"ha":890,"x_min":32,"x_max":873,"o":"m 675 925 l 533 715 l 317 715 l 385 925 l 675 925 m 444 187 l 444 229 q 366 175 365 220 q 404 139 366 139 q 444 187 444 138 m 221 -14 q 82 34 132 -14 q 32 164 32 81 q 323 335 32 335 q 443 328 374 335 l 443 452 q 414 489 443 489 q 385 452 385 489 q 395 408 385 433 l 82 342 q 53 449 53 397 q 152 603 53 545 q 435 661 251 661 q 712 597 620 661 q 804 395 804 534 l 804 193 q 833 150 804 151 q 873 160 858 151 l 873 43 q 787 0 846 15 q 669 -14 729 -15 q 556 20 608 -14 q 484 111 504 53 q 380 17 449 47 q 221 -14 311 -14 z "},"â":{"ha":890,"x_min":32,"x_max":873,"o":"m 597 925 l 700 707 l 476 707 l 440 832 l 406 707 l 182 707 l 282 925 l 597 925 m 444 187 l 444 229 q 366 175 365 220 q 404 139 366 139 q 444 187 444 138 m 221 -14 q 82 34 132 -14 q 32 164 32 81 q 323 335 32 335 q 443 328 374 335 l 443 452 q 414 489 443 489 q 385 452 385 489 q 395 408 385 433 l 82 342 q 53 449 53 397 q 152 603 53 545 q 435 661 251 661 q 712 597 620 661 q 804 395 804 534 l 804 193 q 833 150 804 151 q 873 160 858 151 l 873 43 q 787 0 846 15 q 669 -14 729 -15 q 556 20 608 -14 q 484 111 504 53 q 380 17 449 47 q 221 -14 311 -14 z "},"ã":{"ha":890,"x_min":32,"x_max":873,"o":"m 675 835 q 642 748 675 783 q 546 713 608 713 q 437 742 510 713 q 338 771 363 771 q 311 746 312 771 q 325 714 311 730 l 250 688 q 182 812 182 735 q 216 901 182 867 q 305 936 250 936 q 429 906 361 936 q 520 876 497 876 q 543 899 543 876 q 529 926 543 914 l 608 960 q 675 835 675 917 m 444 187 l 444 229 q 366 175 365 220 q 404 139 366 139 q 444 187 444 138 m 221 -14 q 82 34 132 -14 q 32 164 32 81 q 323 335 32 335 q 443 328 374 335 l 443 452 q 414 489 443 489 q 385 452 385 489 q 395 408 385 433 l 82 342 q 53 449 53 397 q 152 603 53 545 q 435 661 251 661 q 712 597 620 661 q 804 395 804 534 l 804 193 q 833 150 804 151 q 873 160 858 151 l 873 43 q 787 0 846 15 q 669 -14 729 -15 q 556 20 608 -14 q 484 111 504 53 q 380 17 449 47 q 221 -14 311 -14 z "},"ä":{"ha":890,"x_min":32,"x_max":873,"o":"m 401 720 l 160 720 l 160 925 l 401 925 l 401 720 m 715 720 l 468 720 l 468 925 l 715 925 l 715 720 m 444 187 l 444 229 q 366 175 365 220 q 404 139 366 139 q 444 187 444 138 m 221 -14 q 82 34 132 -14 q 32 164 32 81 q 323 335 32 335 q 443 328 374 335 l 443 452 q 414 489 443 489 q 385 452 385 489 q 395 408 385 433 l 82 342 q 53 449 53 397 q 152 603 53 545 q 435 661 251 661 q 712 597 620 661 q 804 395 804 534 l 804 193 q 833 150 804 151 q 873 160 858 151 l 873 43 q 787 0 846 15 q 669 -14 729 -15 q 556 20 608 -14 q 484 111 504 53 q 380 17 449 47 q 221 -14 311 -14 z "},"å":{"ha":890,"x_min":32,"x_max":873,"o":"m 462 799 q 468 805 462 799 q 473 831 473 811 q 462 863 473 850 q 432 875 450 875 q 402 863 414 875 q 391 831 391 850 q 401 799 391 811 q 432 787 414 787 q 462 799 450 787 m 614 831 q 560 734 614 770 q 431 697 506 697 q 303 733 357 697 q 250 830 250 769 q 303 928 250 891 q 432 964 357 964 q 560 928 507 964 q 614 831 613 892 m 444 187 l 444 229 q 366 175 365 220 q 404 139 366 139 q 444 187 444 138 m 221 -14 q 82 34 132 -14 q 32 164 32 81 q 323 335 32 335 q 443 328 374 335 l 443 452 q 414 489 443 489 q 385 452 385 489 q 395 408 385 433 l 82 342 q 53 449 53 397 q 152 603 53 545 q 435 661 251 661 q 712 597 620 661 q 804 395 804 534 l 804 193 q 833 150 804 151 q 873 160 858 151 l 873 43 q 787 0 846 15 q 669 -14 729 -15 q 556 20 608 -14 q 484 111 504 53 q 380 17 449 47 q 221 -14 311 -14 z "},"æ":{"ha":1217,"x_min":32,"x_max":1187,"o":"m 366 175 q 406 138 366 138 q 463 187 447 138 q 452 231 453 210 q 366 175 366 220 m 848 489 q 804 385 804 489 l 804 378 l 886 378 q 889 414 889 406 q 848 489 888 489 m 860 174 q 897 215 897 174 q 893 239 897 227 l 1178 212 q 1183 164 1183 190 q 822 -14 1183 -14 q 640 14 722 -14 q 514 93 558 41 q 377 8 446 31 q 220 -14 308 -14 q 82 34 132 -14 q 32 164 32 81 q 317 330 32 331 q 443 323 371 330 q 450 395 442 363 q 458 444 458 426 q 422 489 458 489 q 386 449 387 489 q 395 408 386 431 l 82 342 q 54 461 54 406 q 136 607 54 553 q 386 661 217 661 q 593 570 530 661 q 836 661 663 661 q 1076 601 975 661 q 1158 514 1128 570 q 1187 397 1187 458 q 1178 286 1187 335 l 804 286 q 822 195 808 217 q 860 174 836 174 z "},"ç":{"ha":770,"x_min":20,"x_max":745,"o":"m 621 -138 q 446 -243 621 -243 q 271 -205 332 -243 l 289 -151 q 363 -167 325 -167 q 401 -140 401 -167 q 365 -115 401 -115 q 314 -118 328 -115 l 364 -12 q 20 323 20 10 q 119 573 20 485 q 418 661 218 661 q 650 598 564 661 q 736 425 736 535 q 732 386 736 406 l 464 368 q 465 400 465 379 q 429 460 465 460 q 380 323 380 460 q 429 187 380 187 q 469 277 469 187 l 469 283 l 737 257 q 745 203 744 229 q 665 52 745 111 q 440 -14 586 -8 l 406 -90 q 503 -52 446 -52 q 590 -75 560 -52 q 621 -138 620 -98 z "},"è":{"ha":800,"x_min":25,"x_max":765,"o":"m 304 715 l 163 925 l 453 925 l 521 715 l 304 715 m 471 414 q 430 489 471 489 q 386 378 389 489 l 468 378 q 471 414 471 406 m 441 174 q 479 215 479 174 q 475 239 479 226 l 760 212 q 765 167 765 190 q 404 -14 765 -14 q 25 323 25 -14 q 124 566 25 471 q 418 661 223 661 q 659 601 557 661 q 740 513 710 570 q 760 286 787 423 l 386 286 q 404 195 391 217 q 441 174 418 174 z "},"é":{"ha":800,"x_min":25,"x_max":765,"o":"m 650 925 l 509 715 l 292 715 l 359 925 l 650 925 m 471 414 q 430 489 471 489 q 386 378 389 489 l 468 378 q 471 414 471 406 m 441 174 q 479 215 479 174 q 475 239 479 226 l 760 212 q 765 167 765 190 q 404 -14 765 -14 q 25 323 25 -14 q 124 566 25 471 q 418 661 223 661 q 659 601 557 661 q 740 513 710 570 q 760 286 787 423 l 386 286 q 404 195 391 217 q 441 174 418 174 z "},"ê":{"ha":800,"x_min":25,"x_max":765,"o":"m 581 925 l 684 707 l 460 707 l 424 832 l 389 707 l 165 707 l 265 925 l 581 925 m 471 414 q 430 489 471 489 q 386 378 389 489 l 468 378 q 471 414 471 406 m 441 174 q 479 215 479 174 q 475 239 479 226 l 760 212 q 765 167 765 190 q 404 -14 765 -14 q 25 323 25 -14 q 124 566 25 471 q 418 661 223 661 q 659 601 557 661 q 740 513 710 570 q 760 286 787 423 l 386 286 q 404 195 391 217 q 441 174 418 174 z "},"ë":{"ha":800,"x_min":25,"x_max":765,"o":"m 376 720 l 135 720 l 135 925 l 376 925 l 376 720 m 690 720 l 443 720 l 443 925 l 690 925 l 690 720 m 471 414 q 430 489 471 489 q 386 378 389 489 l 468 378 q 471 414 471 406 m 441 174 q 479 215 479 174 q 475 239 479 226 l 760 212 q 765 167 765 190 q 404 -14 765 -14 q 25 323 25 -14 q 124 566 25 471 q 418 661 223 661 q 659 601 557 661 q 740 513 710 570 q 760 286 787 423 l 386 286 q 404 195 391 217 q 441 174 418 174 z "},"ì":{"ha":458,"x_min":-20,"x_max":410,"o":"m 122 715 l -20 925 l 271 925 l 339 715 l 122 715 m 410 0 l 49 0 l 49 647 l 410 647 l 410 0 z "},"í":{"ha":458,"x_min":49,"x_max":481,"o":"m 481 925 l 339 715 l 122 715 l 191 925 l 481 925 m 410 0 l 49 0 l 49 647 l 410 647 l 410 0 z "},"î":{"ha":458,"x_min":-29,"x_max":489,"o":"m 386 925 l 489 707 l 265 707 l 229 832 l 195 707 l -29 707 l 71 925 l 386 925 m 410 0 l 49 0 l 49 647 l 410 647 l 410 0 z "},"ï":{"ha":458,"x_min":-49,"x_max":507,"o":"m 193 720 l -49 720 l -49 925 l 193 925 l 193 720 m 507 720 l 260 720 l 260 925 l 507 925 l 507 720 m 410 0 l 49 0 l 49 647 l 410 647 l 410 0 z "},"ð":{"ha":897,"x_min":35,"x_max":861,"o":"m 496 268 q 439 361 496 361 q 382 267 382 361 q 437 174 382 174 q 481 200 467 174 q 496 268 496 227 m 861 390 q 754 94 861 203 q 422 -14 647 -14 q 138 71 242 -14 q 35 283 35 155 q 103 471 35 391 q 298 550 171 551 q 425 502 370 550 q 498 371 479 454 q 410 671 494 535 l 250 599 l 211 677 l 354 743 q 74 925 244 867 l 488 925 q 612 861 562 897 l 741 920 l 779 839 l 690 799 q 861 390 861 632 z "},"ñ":{"ha":903,"x_min":49,"x_max":857,"o":"m 693 835 q 660 748 693 783 q 564 713 627 713 q 454 742 528 713 q 355 771 381 771 q 329 746 329 771 q 343 714 329 730 l 268 688 q 200 812 200 735 q 234 901 200 867 q 323 936 268 936 q 447 906 378 936 q 534 876 516 876 q 561 899 561 876 q 547 926 561 914 l 627 960 q 693 835 693 917 m 857 0 l 496 0 l 496 351 q 458 399 496 399 q 410 302 410 399 l 410 0 l 49 0 l 49 647 l 325 647 l 379 461 q 469 606 407 551 q 623 661 530 661 q 857 334 857 661 l 857 0 z "},"ò":{"ha":858,"x_min":17,"x_max":842,"o":"m 314 715 l 172 925 l 463 925 l 530 715 l 314 715 m 481 323 q 468 433 480 407 q 429 460 456 460 q 391 433 403 460 q 378 323 378 407 q 390 214 378 240 q 429 187 401 187 q 468 214 456 187 q 481 323 480 240 m 729 570 q 842 323 842 479 q 729 77 842 168 q 429 -14 616 -14 q 129 77 242 -14 q 17 323 16 168 q 129 570 17 479 q 429 661 241 661 q 729 570 616 661 z "},"ó":{"ha":858,"x_min":17,"x_max":842,"o":"m 684 925 l 542 715 l 325 715 l 393 925 l 684 925 m 481 323 q 468 433 480 407 q 429 460 456 460 q 391 433 403 460 q 378 323 378 407 q 390 214 378 240 q 429 187 401 187 q 468 214 456 187 q 481 323 480 240 m 729 570 q 842 323 842 479 q 729 77 842 168 q 429 -14 616 -14 q 129 77 242 -14 q 17 323 16 168 q 129 570 17 479 q 429 661 241 661 q 729 570 616 661 z "},"ô":{"ha":858,"x_min":17,"x_max":842,"o":"m 591 925 l 694 707 l 471 707 l 435 832 l 400 707 l 176 707 l 277 925 l 591 925 m 481 323 q 468 433 480 407 q 429 460 456 460 q 391 433 403 460 q 378 323 378 407 q 390 214 378 240 q 429 187 401 187 q 468 214 456 187 q 481 323 480 240 m 729 570 q 842 323 842 479 q 729 77 842 168 q 429 -14 616 -14 q 129 77 242 -14 q 17 323 16 168 q 129 570 17 479 q 429 661 241 661 q 729 570 616 661 z "},"õ":{"ha":858,"x_min":17,"x_max":842,"o":"m 668 835 q 635 748 668 783 q 539 713 602 713 q 430 742 503 713 q 330 771 357 771 q 304 746 304 771 q 318 714 304 730 l 243 688 q 175 812 175 735 q 209 901 175 867 q 298 936 243 936 q 422 906 354 936 q 510 876 492 876 q 536 899 536 876 q 522 926 536 914 l 602 960 q 668 835 668 917 m 481 323 q 468 433 480 407 q 429 460 456 460 q 391 433 403 460 q 378 323 378 407 q 390 214 378 240 q 429 187 401 187 q 468 214 456 187 q 481 323 480 240 m 729 570 q 842 323 842 479 q 729 77 842 168 q 429 -14 616 -14 q 129 77 242 -14 q 17 323 16 168 q 129 570 17 479 q 429 661 241 661 q 729 570 616 661 z "},"ö":{"ha":858,"x_min":17,"x_max":842,"o":"m 399 720 l 157 720 l 157 925 l 399 925 l 399 720 m 713 720 l 465 720 l 465 925 l 713 925 l 713 720 m 481 323 q 468 433 480 407 q 429 460 456 460 q 391 433 403 460 q 378 323 378 407 q 390 214 378 240 q 429 187 401 187 q 468 214 456 187 q 481 323 480 240 m 729 570 q 842 323 842 479 q 729 77 842 168 q 429 -14 616 -14 q 129 77 242 -14 q 17 323 16 168 q 129 570 17 479 q 429 661 241 661 q 729 570 616 661 z "},"÷":{"ha":758,"x_min":56,"x_max":703,"o":"m 518 457 l 240 457 l 240 647 l 518 647 l 518 457 m 518 0 l 240 0 l 240 191 l 518 191 l 518 0 m 703 239 l 56 239 l 56 408 l 703 408 l 703 239 z "},"ø":{"ha":858,"x_min":17,"x_max":842,"o":"m 378 323 l 378 315 l 476 396 q 460 447 472 435 q 426 460 449 460 q 391 433 403 460 q 378 323 378 407 m 481 323 l 481 332 l 380 253 q 396 201 384 214 q 432 187 408 187 q 468 214 456 187 q 481 323 480 240 m 751 550 q 842 315 842 463 q 729 77 842 168 q 435 -14 616 -14 q 146 64 253 -14 l 49 -14 l 17 26 l 106 97 q 17 332 17 186 q 129 570 17 479 q 422 661 241 661 q 711 583 602 661 l 808 661 l 840 621 l 751 550 z "},"ù":{"ha":903,"x_min":46,"x_max":854,"o":"m 359 715 l 218 925 l 509 925 l 576 715 l 359 715 m 46 647 l 407 647 l 407 296 q 444 249 407 248 q 493 345 493 249 l 493 647 l 854 647 l 854 0 l 578 0 l 524 186 q 434 41 496 96 q 281 -14 372 -14 q 46 314 46 -14 l 46 647 z "},"ú":{"ha":903,"x_min":46,"x_max":854,"o":"m 700 925 l 558 715 l 342 715 l 410 925 l 700 925 m 46 647 l 407 647 l 407 296 q 444 249 407 248 q 493 345 493 249 l 493 647 l 854 647 l 854 0 l 578 0 l 524 186 q 434 41 496 96 q 281 -14 372 -14 q 46 314 46 -14 l 46 647 z "},"û":{"ha":903,"x_min":46,"x_max":854,"o":"m 612 925 l 715 707 l 492 707 l 456 832 l 421 707 l 197 707 l 297 925 l 612 925 m 46 647 l 407 647 l 407 296 q 444 249 407 248 q 493 345 493 249 l 493 647 l 854 647 l 854 0 l 578 0 l 524 186 q 434 41 496 96 q 281 -14 372 -14 q 46 314 46 -14 l 46 647 z "},"ü":{"ha":903,"x_min":46,"x_max":854,"o":"m 418 720 l 176 720 l 176 925 l 418 925 l 418 720 m 732 720 l 485 720 l 485 925 l 732 925 l 732 720 m 46 647 l 407 647 l 407 296 q 444 249 407 248 q 493 345 493 249 l 493 647 l 854 647 l 854 0 l 578 0 l 524 186 q 434 41 496 96 q 281 -14 372 -14 q 46 314 46 -14 l 46 647 z "},"ý":{"ha":814,"x_min":-7,"x_max":828,"o":"m 668 925 l 526 715 l 310 715 l 378 925 l 668 925 m 420 -228 q 285 -241 373 -241 q 109 -205 197 -241 l 114 -71 q 174 -78 142 -77 q 260 -22 243 -78 l -7 647 l 326 647 l 427 271 l 530 647 l 828 647 l 608 14 q 561 -100 583 -58 q 504 -178 538 -142 q 420 -228 469 -213 z "},"þ":{"ha":891,"x_min":49,"x_max":871,"o":"m 498 218 q 504 234 498 218 q 510 323 510 250 q 499 427 510 396 q 459 458 488 458 q 420 427 431 458 q 410 323 410 396 q 420 218 410 250 q 458 187 431 187 q 498 218 486 187 m 49 -228 l 49 925 l 410 925 l 410 522 q 603 661 468 661 q 804 567 738 661 q 871 323 871 472 q 806 80 871 174 q 608 -14 741 -14 q 485 26 536 -14 q 410 127 433 66 l 410 -228 l 49 -228 z "},"ÿ":{"ha":814,"x_min":-7,"x_max":828,"o":"m 396 720 l 154 720 l 154 925 l 396 925 l 396 720 m 710 720 l 463 720 l 463 925 l 710 925 l 710 720 m 420 -228 q 285 -241 373 -241 q 109 -205 197 -241 l 114 -71 q 174 -78 142 -77 q 260 -22 243 -78 l -7 647 l 326 647 l 427 271 l 530 647 l 828 647 l 608 14 q 561 -100 583 -58 q 504 -178 538 -142 q 420 -228 469 -213 z "},"Ā":{"ha":1137,"x_min":14,"x_max":1131,"o":"m 848 993 l 283 993 l 283 1153 l 848 1153 l 848 993 m 528 647 l 425 326 l 631 326 l 528 647 m 787 925 l 1131 0 l 734 0 l 693 129 l 361 129 l 321 0 l 14 0 l 355 925 l 787 925 z "},"ā":{"ha":890,"x_min":32,"x_max":873,"o":"m 708 726 l 171 726 l 171 904 l 708 904 l 708 726 m 444 187 l 444 229 q 366 175 365 220 q 404 139 366 139 q 444 187 444 138 m 221 -14 q 82 34 132 -14 q 32 164 32 81 q 323 335 32 335 q 443 328 374 335 l 443 452 q 414 489 443 489 q 385 452 385 489 q 395 408 385 433 l 82 342 q 53 449 53 397 q 152 603 53 545 q 435 661 251 661 q 712 597 620 661 q 804 395 804 534 l 804 193 q 833 150 804 151 q 873 160 858 151 l 873 43 q 787 0 846 15 q 669 -14 729 -15 q 556 20 608 -14 q 484 111 504 53 q 380 17 449 47 q 221 -14 311 -14 z "},"Ă":{"ha":1137,"x_min":14,"x_max":1131,"o":"m 860 1095 q 777 1016 860 1043 q 572 989 694 989 q 368 1016 450 989 q 285 1095 285 1043 q 304 1147 285 1120 l 539 1147 q 528 1114 528 1131 q 572 1079 528 1079 q 616 1114 617 1079 q 606 1147 616 1131 l 840 1147 q 860 1095 860 1120 m 528 647 l 425 326 l 631 326 l 528 647 m 787 925 l 1131 0 l 734 0 l 693 129 l 361 129 l 321 0 l 14 0 l 355 925 l 787 925 z "},"ă":{"ha":890,"x_min":32,"x_max":873,"o":"m 696 840 q 630 740 696 779 q 439 700 564 700 q 248 739 315 700 q 182 840 182 779 q 212 925 182 882 l 392 925 q 394 846 363 871 q 439 832 411 832 q 484 846 468 832 q 486 925 515 871 l 665 925 q 696 840 696 882 m 444 187 l 444 229 q 366 175 365 220 q 404 139 366 139 q 444 187 444 138 m 221 -14 q 82 34 132 -14 q 32 164 32 81 q 323 335 32 335 q 443 328 374 335 l 443 452 q 414 489 443 489 q 385 452 385 489 q 395 408 385 433 l 82 342 q 53 449 53 397 q 152 603 53 545 q 435 661 251 661 q 712 597 620 661 q 804 395 804 534 l 804 193 q 833 150 804 151 q 873 160 858 151 l 873 43 q 787 0 846 15 q 669 -14 729 -15 q 556 20 608 -14 q 484 111 504 53 q 380 17 449 47 q 221 -14 311 -14 z "},"Ą":{"ha":1137,"x_min":14,"x_max":1131,"o":"m 528 647 l 425 326 l 631 326 l 528 647 m 829 -241 q 661 -142 661 -241 q 717 -65 661 -99 q 956 0 817 -4 l 734 0 l 693 129 l 361 129 l 321 0 l 14 0 l 355 925 l 787 925 l 1131 0 l 977 0 q 876 -122 877 -56 q 924 -165 876 -165 q 966 -160 944 -165 l 977 -214 q 829 -241 914 -241 z "},"ą":{"ha":890,"x_min":32,"x_max":873,"o":"m 444 187 l 444 229 q 366 175 365 220 q 404 139 366 139 q 444 187 444 138 m 653 -241 q 485 -146 485 -241 q 576 -54 485 -87 q 733 -9 633 -33 q 679 -14 704 -14 q 556 20 608 -14 q 484 111 504 53 q 380 17 449 47 q 221 -14 311 -14 q 82 34 132 -14 q 32 164 32 81 q 323 335 32 335 q 443 328 374 335 l 443 452 q 414 489 443 489 q 385 452 385 489 q 395 408 385 433 l 82 342 q 53 449 53 397 q 152 603 53 545 q 435 661 251 661 q 712 597 620 661 q 804 395 804 534 l 804 193 q 831 151 804 151 q 873 160 859 151 l 873 45 q 839 20 861 33 q 700 -122 700 -66 q 747 -165 700 -165 q 790 -160 768 -165 l 800 -214 q 653 -241 738 -241 z "},"Ć":{"ha":1019,"x_min":28,"x_max":991,"o":"m 794 1158 l 659 986 l 424 986 l 481 1158 l 794 1158 m 559 675 q 454 615 490 675 q 419 463 420 555 q 570 250 419 250 q 718 404 694 250 l 991 335 q 862 86 983 189 q 539 -17 741 -17 q 155 114 282 -17 q 28 456 28 245 q 164 804 28 667 q 551 942 300 942 q 852 849 742 941 q 972 572 963 757 l 697 524 q 663 633 697 593 q 559 675 628 674 z "},"ć":{"ha":770,"x_min":20,"x_max":745,"o":"m 660 925 l 518 715 l 301 715 l 370 925 l 660 925 m 465 400 q 429 460 465 460 q 380 323 380 460 q 429 187 380 187 q 469 277 469 187 l 469 283 l 737 257 q 745 203 744 233 q 659 47 745 109 q 418 -14 574 -14 q 20 323 19 -14 q 119 573 20 485 q 418 661 218 661 q 650 598 564 661 q 736 425 736 535 q 733 386 736 408 l 464 368 q 465 400 465 382 z "},"Ĉ":{"ha":1019,"x_min":28,"x_max":991,"o":"m 721 1149 l 823 986 l 586 986 l 550 1078 l 515 986 l 278 986 l 378 1149 l 721 1149 m 559 675 q 454 615 490 675 q 419 463 420 555 q 570 250 419 250 q 718 404 694 250 l 991 335 q 862 86 983 189 q 539 -17 741 -17 q 155 114 282 -17 q 28 456 28 245 q 164 804 28 667 q 551 942 300 942 q 852 849 742 941 q 972 572 963 757 l 697 524 q 663 633 697 593 q 559 675 628 674 z "},"ĉ":{"ha":770,"x_min":20,"x_max":745,"o":"m 571 925 l 673 707 l 450 707 l 414 832 l 379 707 l 155 707 l 256 925 l 571 925 m 465 400 q 429 460 465 460 q 380 323 380 460 q 429 187 380 187 q 469 277 469 187 l 469 283 l 737 257 q 745 203 744 233 q 659 47 745 109 q 418 -14 574 -14 q 20 323 19 -14 q 119 573 20 485 q 418 661 218 661 q 650 598 564 661 q 736 425 736 535 q 733 386 736 408 l 464 368 q 465 400 465 382 z "},"Ċ":{"ha":1019,"x_min":28,"x_max":991,"o":"m 732 996 l 371 996 l 371 1214 l 732 1214 l 732 996 m 559 675 q 454 615 490 675 q 419 463 420 555 q 570 250 419 250 q 718 404 694 250 l 991 335 q 862 86 983 189 q 539 -17 741 -17 q 155 114 282 -17 q 28 456 28 245 q 164 804 28 667 q 551 942 300 942 q 852 849 742 941 q 972 572 963 757 l 697 524 q 663 633 697 593 q 559 675 628 674 z "},"ċ":{"ha":770,"x_min":20,"x_max":745,"o":"m 595 707 l 233 707 l 233 925 l 595 925 l 595 707 m 465 400 q 429 460 465 460 q 380 323 380 460 q 429 187 380 187 q 469 277 469 187 l 469 283 l 737 257 q 745 203 744 233 q 659 47 745 109 q 418 -14 574 -14 q 20 323 19 -14 q 119 573 20 485 q 418 661 218 661 q 650 598 564 661 q 736 425 736 535 q 733 386 736 408 l 464 368 q 465 400 465 382 z "},"Č":{"ha":1019,"x_min":28,"x_max":991,"o":"m 827 1149 l 724 986 l 380 986 l 281 1149 l 518 1149 l 553 1057 l 589 1149 l 827 1149 m 559 675 q 454 615 490 675 q 419 463 420 555 q 570 250 419 250 q 718 404 694 250 l 991 335 q 862 86 983 189 q 539 -17 741 -17 q 155 114 282 -17 q 28 456 28 245 q 164 804 28 667 q 551 942 300 942 q 852 849 742 941 q 972 572 963 757 l 697 524 q 663 633 697 593 q 559 675 628 674 z "},"č":{"ha":770,"x_min":20,"x_max":745,"o":"m 676 925 l 574 707 l 258 707 l 158 925 l 382 925 l 416 800 l 453 925 l 676 925 m 465 400 q 429 460 465 460 q 380 323 380 460 q 429 187 380 187 q 469 277 469 187 l 469 283 l 737 257 q 745 203 744 233 q 659 47 745 109 q 418 -14 574 -14 q 20 323 19 -14 q 119 573 20 485 q 418 661 218 661 q 650 598 564 661 q 736 425 736 535 q 733 386 736 408 l 464 368 q 465 400 465 382 z "},"Ď":{"ha":1066,"x_min":56,"x_max":1047,"o":"m 753 1149 l 650 986 l 307 986 l 207 1149 l 444 1149 l 479 1057 l 515 1149 l 753 1149 m 672 463 q 632 617 672 554 q 505 681 592 680 l 431 681 l 431 244 l 505 244 q 632 308 591 244 q 672 463 673 372 m 916 796 q 1047 463 1047 667 q 916 129 1047 258 q 547 0 783 0 l 56 0 l 56 925 l 547 925 q 916 796 783 925 z "},"ď":{"ha":1206,"x_min":21,"x_max":1196,"o":"m 1196 925 l 1196 721 q 1139 553 1196 608 q 954 488 1083 498 l 940 581 q 1054 660 1054 593 l 932 660 l 932 925 l 1196 925 m 473 431 q 435 458 464 458 q 393 428 406 458 q 382 320 381 397 q 395 215 382 243 q 435 187 407 187 q 473 216 464 187 q 481 324 481 245 q 473 431 481 403 m 21 323 q 87 567 21 472 q 285 661 154 662 q 404 623 353 661 q 482 522 456 584 l 482 925 l 843 925 l 843 0 l 633 0 l 566 160 q 469 34 534 82 q 305 -14 404 -14 q 140 38 206 -14 q 47 161 73 90 q 21 323 21 235 z "},"Đ":{"ha":1126,"x_min":41,"x_max":1107,"o":"m 732 463 q 692 617 732 554 q 566 681 652 680 l 490 681 l 490 526 l 611 526 l 611 400 l 490 400 l 490 244 l 566 244 q 692 308 652 244 q 732 463 732 372 m 41 400 l 41 526 l 115 526 l 115 925 l 607 925 q 975 796 843 925 q 1107 463 1107 667 q 975 129 1107 258 q 607 0 843 0 l 115 0 l 115 400 l 41 400 z "},"đ":{"ha":904,"x_min":21,"x_max":918,"o":"m 473 431 q 435 458 464 458 q 393 428 406 458 q 382 320 381 397 q 395 215 382 243 q 435 187 407 187 q 473 216 464 187 q 481 324 481 245 q 473 431 481 403 m 346 688 l 346 821 l 482 821 l 482 925 l 843 925 l 843 821 l 918 821 l 918 688 l 843 688 l 843 0 l 633 0 l 566 160 q 469 34 534 82 q 305 -14 404 -14 q 140 38 206 -14 q 47 162 73 90 q 21 323 21 235 q 87 567 21 472 q 285 661 154 662 q 404 623 353 661 q 482 522 456 584 l 482 688 l 346 688 z "},"Ē":{"ha":913,"x_min":56,"x_max":865,"o":"m 751 993 l 186 993 l 186 1153 l 751 1153 l 751 993 m 865 0 l 56 0 l 56 925 l 857 925 l 857 672 l 431 672 l 431 572 l 765 572 l 765 364 l 431 364 l 431 253 l 865 253 l 865 0 z "},"ē":{"ha":800,"x_min":25,"x_max":765,"o":"m 684 726 l 146 726 l 146 904 l 684 904 l 684 726 m 471 414 q 430 489 471 489 q 386 378 389 489 l 468 378 q 471 414 471 406 m 441 174 q 479 215 479 174 q 475 239 479 226 l 760 212 q 765 167 765 190 q 404 -14 765 -14 q 25 323 25 -14 q 124 566 25 471 q 418 661 223 661 q 659 601 557 661 q 740 513 710 570 q 760 286 787 423 l 386 286 q 404 195 391 217 q 441 174 418 174 z "},"Ĕ":{"ha":913,"x_min":56,"x_max":865,"o":"m 680 1016 q 638 1002 680 1016 q 475 989 597 989 q 270 1016 353 989 q 187 1095 187 1043 q 207 1147 187 1120 l 441 1147 q 431 1114 431 1131 q 475 1079 430 1079 q 519 1114 519 1079 q 509 1147 519 1131 l 743 1147 q 762 1095 763 1120 q 680 1016 762 1043 m 865 0 l 56 0 l 56 925 l 857 925 l 857 672 l 431 672 l 431 572 l 765 572 l 765 364 l 431 364 l 431 253 l 865 253 l 865 0 z "},"ĕ":{"ha":800,"x_min":25,"x_max":765,"o":"m 688 840 q 621 740 688 779 q 431 700 555 700 q 240 739 307 700 q 174 840 174 779 q 204 925 174 882 l 383 925 q 370 880 370 900 q 385 846 369 859 q 431 832 401 832 q 476 846 460 832 q 492 880 492 859 q 478 925 492 900 l 657 925 q 688 840 688 882 m 471 414 q 430 489 471 489 q 386 378 389 489 l 468 378 q 471 414 471 406 m 441 174 q 479 215 479 174 q 475 239 479 226 l 760 212 q 765 167 765 190 q 404 -14 765 -14 q 25 323 25 -14 q 124 566 25 471 q 418 661 223 661 q 659 601 557 661 q 740 513 710 570 q 760 286 787 423 l 386 286 q 404 195 391 217 q 441 174 418 174 z "},"Ė":{"ha":913,"x_min":56,"x_max":865,"o":"m 653 996 l 292 996 l 292 1214 l 653 1214 l 653 996 m 865 0 l 56 0 l 56 925 l 857 925 l 857 672 l 431 672 l 431 572 l 765 572 l 765 364 l 431 364 l 431 253 l 865 253 l 865 0 z "},"ė":{"ha":800,"x_min":25,"x_max":765,"o":"m 597 707 l 236 707 l 236 925 l 597 925 l 597 707 m 471 414 q 430 489 471 489 q 386 378 389 489 l 468 378 q 471 414 471 406 m 441 174 q 479 215 479 174 q 475 239 479 226 l 760 212 q 765 167 765 190 q 404 -14 765 -14 q 25 323 25 -14 q 124 566 25 471 q 418 661 223 661 q 659 601 557 661 q 740 513 710 570 q 760 286 787 423 l 386 286 q 404 195 391 217 q 441 174 418 174 z "},"Ę":{"ha":913,"x_min":56,"x_max":865,"o":"m 718 -241 q 550 -142 550 -241 q 595 -74 550 -101 q 688 -35 640 -47 q 838 0 779 -9 l 56 0 l 56 925 l 857 925 l 857 672 l 431 672 l 431 572 l 765 572 l 765 364 l 431 364 l 431 253 l 865 253 l 865 0 q 765 -122 766 -56 q 812 -165 765 -165 q 856 -160 833 -165 l 865 -214 q 718 -241 803 -241 z "},"ę":{"ha":800,"x_min":25,"x_max":770,"o":"m 471 414 q 430 489 471 489 q 386 378 389 489 l 468 378 q 471 414 471 406 m 464 -241 q 296 -155 296 -241 q 578 0 296 -65 q 404 -14 492 -14 q 25 323 25 -14 q 124 566 25 471 q 418 661 223 661 q 659 601 557 661 q 740 513 710 570 q 770 395 770 456 q 760 286 770 334 l 386 286 q 404 195 391 217 q 441 174 418 174 q 479 215 479 174 q 475 239 479 226 l 760 212 q 765 167 765 190 q 665 25 765 83 q 551 -58 591 -16 q 511 -126 511 -100 q 558 -165 511 -165 q 602 -160 579 -165 l 611 -214 q 464 -241 549 -241 z "},"Ě":{"ha":913,"x_min":56,"x_max":865,"o":"m 743 1149 l 640 986 l 297 986 l 197 1149 l 435 1149 l 469 1057 l 505 1149 l 743 1149 m 865 0 l 56 0 l 56 925 l 857 925 l 857 672 l 431 672 l 431 572 l 765 572 l 765 364 l 431 364 l 431 253 l 865 253 l 865 0 z "},"ě":{"ha":800,"x_min":25,"x_max":765,"o":"m 681 925 l 578 707 l 262 707 l 163 925 l 386 925 l 421 800 l 457 925 l 681 925 m 471 414 q 430 489 471 489 q 386 378 389 489 l 468 378 q 471 414 471 406 m 441 174 q 479 215 479 174 q 475 239 479 226 l 760 212 q 765 167 765 190 q 404 -14 765 -14 q 25 323 25 -14 q 124 566 25 471 q 418 661 223 661 q 659 601 557 661 q 740 513 710 570 q 760 286 787 423 l 386 286 q 404 195 391 217 q 441 174 418 174 z "},"Ĝ":{"ha":1082,"x_min":25,"x_max":1034,"o":"m 728 1149 l 831 986 l 593 986 l 557 1078 l 522 986 l 285 986 l 385 1149 l 728 1149 m 602 330 l 602 475 l 1034 475 l 1034 0 l 835 0 l 803 143 q 695 31 775 79 q 515 -17 615 -17 q 153 113 281 -18 q 25 461 26 243 q 172 810 25 680 q 581 942 319 942 q 883 853 765 943 q 1007 591 1001 764 l 725 533 q 589 675 707 675 q 473 616 513 675 q 432 460 432 559 q 469 294 432 361 q 583 227 505 227 q 705 330 683 227 l 602 330 z "},"ĝ":{"ha":871,"x_min":-21,"x_max":901,"o":"m 411 366 q 460 442 460 365 q 412 519 460 519 q 365 442 365 519 q 411 366 365 365 m 463 -25 l 342 -25 q 288 -56 288 -25 q 409 -90 288 -90 q 530 -58 530 -90 q 463 -25 530 -25 m 571 925 l 673 707 l 450 707 l 414 832 l 379 707 l 155 707 l 256 925 l 571 925 m 53 441 q 147 601 53 541 q 422 660 241 661 q 705 571 602 660 q 730 664 705 624 q 798 704 754 704 q 901 586 888 704 l 829 509 q 786 542 808 542 q 746 524 764 542 q 772 441 772 482 q 677 284 772 343 q 411 225 582 225 q 258 239 322 225 q 248 215 248 231 q 288 192 248 191 l 475 192 q 741 138 643 192 q 838 -27 838 83 q 729 -190 838 -138 q 393 -241 621 -242 q -21 -122 -20 -241 q 47 -50 -20 -76 q 196 -21 115 -24 q 20 117 20 -1 q 72 205 20 171 q 199 257 125 240 q 53 441 53 314 z "},"Ğ":{"ha":1082,"x_min":25,"x_max":1034,"o":"m 856 1095 q 773 1016 856 1043 q 568 989 690 989 q 363 1016 446 989 q 281 1095 281 1043 q 300 1147 281 1120 l 534 1147 q 524 1114 524 1131 q 568 1079 524 1079 q 612 1114 613 1079 q 602 1147 612 1131 l 836 1147 q 856 1095 856 1120 m 602 330 l 602 475 l 1034 475 l 1034 0 l 835 0 l 803 143 q 695 31 775 79 q 515 -17 615 -17 q 153 113 281 -18 q 25 461 26 243 q 172 810 25 680 q 581 942 319 942 q 883 853 765 943 q 1007 591 1001 764 l 725 533 q 589 675 707 675 q 473 616 513 675 q 432 460 432 559 q 469 294 432 361 q 583 227 505 227 q 705 330 683 227 l 602 330 z "},"ğ":{"ha":871,"x_min":-21,"x_max":901,"o":"m 681 925 l 578 707 l 262 707 l 163 925 l 386 925 l 421 800 l 457 925 l 681 925 m 411 366 q 460 442 460 365 q 412 519 460 519 q 365 442 365 519 q 411 366 365 365 m 463 -25 l 342 -25 q 288 -56 288 -25 q 409 -90 288 -90 q 530 -58 530 -90 q 463 -25 530 -25 m 53 441 q 147 601 53 541 q 422 660 241 661 q 705 571 602 660 q 730 664 705 624 q 798 704 754 704 q 901 586 888 704 l 829 509 q 786 542 808 542 q 746 524 764 542 q 772 441 772 482 q 677 284 772 343 q 411 225 582 225 q 258 239 322 225 q 248 215 248 231 q 288 192 248 191 l 475 192 q 741 138 643 192 q 838 -27 838 83 q 729 -190 838 -138 q 393 -241 621 -242 q -21 -122 -20 -241 q 47 -50 -20 -76 q 196 -21 115 -24 q 20 117 20 -1 q 72 205 20 171 q 199 257 125 240 q 53 441 53 314 z "},"Ġ":{"ha":1082,"x_min":25,"x_max":1034,"o":"m 753 996 l 392 996 l 392 1214 l 753 1214 l 753 996 m 602 330 l 602 475 l 1034 475 l 1034 0 l 835 0 l 803 143 q 695 31 775 79 q 515 -17 615 -17 q 153 113 281 -18 q 25 461 26 243 q 172 810 25 680 q 581 942 319 942 q 883 853 765 943 q 1007 591 1001 764 l 725 533 q 589 675 707 675 q 473 616 513 675 q 432 460 432 559 q 469 294 432 361 q 583 227 505 227 q 705 330 683 227 l 602 330 z "},"ġ":{"ha":871,"x_min":-21,"x_max":901,"o":"m 590 707 l 229 707 l 229 925 l 590 925 l 590 707 m 411 366 q 460 442 460 365 q 412 519 460 519 q 365 442 365 519 q 411 366 365 365 m 463 -25 l 342 -25 q 288 -56 288 -25 q 409 -90 288 -90 q 530 -58 530 -90 q 463 -25 530 -25 m 53 441 q 147 601 53 541 q 422 660 241 661 q 705 571 602 660 q 730 664 705 624 q 798 704 754 704 q 901 586 888 704 l 829 509 q 786 542 808 542 q 746 524 764 542 q 772 441 772 482 q 677 284 772 343 q 411 225 582 225 q 258 239 322 225 q 248 215 248 231 q 288 192 248 191 l 475 192 q 741 138 643 192 q 838 -27 838 83 q 729 -190 838 -138 q 393 -241 621 -242 q -21 -122 -20 -241 q 47 -50 -20 -76 q 196 -21 115 -24 q 20 117 20 -1 q 72 205 20 171 q 199 257 125 240 q 53 441 53 314 z "},"Ģ":{"ha":1082,"x_min":25,"x_max":1034,"o":"m 725 -83 l 725 -222 q 454 -411 725 -407 l 446 -339 q 586 -262 574 -331 l 443 -262 l 443 -83 l 725 -83 m 602 330 l 602 475 l 1034 475 l 1034 0 l 835 0 l 803 143 q 695 31 775 79 q 515 -17 615 -17 q 153 113 281 -18 q 25 461 26 243 q 172 810 25 680 q 581 942 319 942 q 883 853 765 943 q 1007 591 1001 764 l 725 533 q 589 675 707 675 q 473 616 513 675 q 432 460 432 559 q 469 294 432 361 q 583 227 505 227 q 705 330 683 227 l 602 330 z "},"ģ":{"ha":871,"x_min":-21,"x_max":901,"o":"m 282 707 l 282 852 q 553 1042 282 1037 l 561 970 q 421 899 430 962 l 564 899 l 564 707 l 282 707 m 411 366 q 460 442 460 365 q 412 519 460 519 q 365 442 365 519 q 411 366 365 365 m 463 -25 l 342 -25 q 288 -56 288 -25 q 409 -90 288 -90 q 530 -58 530 -90 q 463 -25 530 -25 m 53 441 q 147 601 53 541 q 422 660 241 661 q 705 571 602 660 q 730 664 705 624 q 798 704 754 704 q 901 586 888 704 l 829 509 q 786 542 808 542 q 746 524 764 542 q 772 441 772 482 q 677 284 772 343 q 411 225 582 225 q 258 239 322 225 q 248 215 248 231 q 288 192 248 191 l 475 192 q 741 138 643 192 q 838 -27 838 83 q 729 -190 838 -138 q 393 -241 621 -242 q -21 -122 -20 -241 q 47 -50 -20 -76 q 196 -21 115 -24 q 20 117 20 -1 q 72 205 20 171 q 199 257 125 240 q 53 441 53 314 z "},"Ĥ":{"ha":1105,"x_min":56,"x_max":1050,"o":"m 724 1149 l 827 986 l 589 986 l 553 1078 l 518 986 l 281 986 l 380 1149 l 724 1149 m 1050 0 l 675 0 l 675 330 l 431 330 l 431 0 l 56 0 l 56 925 l 431 925 l 431 597 l 675 597 l 675 925 l 1050 925 l 1050 0 z "},"ĥ":{"ha":903,"x_min":-43,"x_max":857,"o":"m 400 1149 l 503 986 l 265 986 l 229 1078 l 195 986 l -43 986 l 57 1149 l 400 1149 m 857 0 l 496 0 l 496 351 q 458 399 496 399 q 423 376 436 399 q 410 315 410 353 l 410 0 l 49 0 l 49 925 l 410 925 l 410 461 q 487 603 429 545 q 623 661 545 661 q 857 334 857 661 l 857 0 z "},"Ħ":{"ha":1189,"x_min":28,"x_max":1161,"o":"m 472 597 l 717 597 l 717 688 l 472 688 l 472 597 m 28 688 l 28 832 l 97 832 l 97 925 l 472 925 l 472 832 l 717 832 l 717 925 l 1092 925 l 1092 832 l 1161 832 l 1161 688 l 1092 688 l 1092 0 l 717 0 l 717 330 l 472 330 l 472 0 l 97 0 l 97 688 l 28 688 z "},"ħ":{"ha":922,"x_min":-7,"x_max":876,"o":"m 876 0 l 515 0 l 515 351 q 478 399 515 399 q 442 376 456 399 q 429 315 429 353 l 429 0 l 68 0 l 68 688 l -7 688 l -7 821 l 68 821 l 68 925 l 429 925 l 429 821 l 566 821 l 566 688 l 429 688 l 429 461 q 506 603 449 545 q 642 661 564 661 q 876 334 876 661 l 876 0 z "},"Ĩ":{"ha":500,"x_min":-7,"x_max":500,"o":"m 500 1092 q 466 1010 500 1043 q 382 977 431 977 q 250 1006 334 977 q 143 1035 167 1035 q 119 1019 119 1035 q 127 1000 119 1011 l 66 962 q -7 1084 -7 1015 q 27 1160 -7 1129 q 116 1190 61 1190 q 247 1160 171 1190 q 346 1131 323 1131 q 368 1153 369 1131 q 355 1178 368 1167 l 432 1214 q 500 1092 500 1169 m 437 0 l 62 0 l 62 925 l 437 925 l 437 0 z "},"ĩ":{"ha":458,"x_min":-22,"x_max":471,"o":"m 471 835 q 437 748 471 783 q 342 713 404 713 q 233 742 306 713 q 133 771 159 771 q 107 746 107 771 q 121 714 107 730 l 46 688 q -22 812 -22 735 q 12 901 -22 867 q 102 936 46 936 q 226 906 157 936 q 313 876 294 876 q 339 899 339 876 q 325 926 338 914 l 404 960 q 471 835 471 917 m 410 0 l 49 0 l 49 647 l 410 647 l 410 0 z "},"Ī":{"ha":500,"x_min":-32,"x_max":533,"o":"m 533 993 l -32 993 l -32 1153 l 533 1153 l 533 993 m 437 0 l 62 0 l 62 925 l 437 925 l 437 0 z "},"ī":{"ha":458,"x_min":-39,"x_max":498,"o":"m 498 726 l -39 726 l -39 904 l 498 904 l 498 726 m 410 0 l 49 0 l 49 647 l 410 647 l 410 0 z "},"Ĭ":{"ha":500,"x_min":-37,"x_max":538,"o":"m 538 1095 q 455 1016 538 1043 q 250 989 372 989 q 45 1016 128 989 q -37 1095 -37 1043 q -18 1147 -37 1120 l 216 1147 q 205 1114 205 1131 q 250 1079 205 1079 q 294 1114 295 1079 q 283 1147 294 1131 l 518 1147 q 538 1095 538 1120 m 437 0 l 62 0 l 62 925 l 437 925 l 437 0 z "},"ĭ":{"ha":458,"x_min":-28,"x_max":486,"o":"m 486 840 q 420 740 486 779 q 229 700 354 700 q 38 739 104 700 q -28 840 -28 779 q 3 925 -28 882 l 182 925 q 168 880 168 900 q 184 846 168 859 q 229 832 201 832 q 274 846 258 832 q 290 880 290 859 q 277 925 290 900 l 456 925 q 486 840 486 882 m 410 0 l 49 0 l 49 647 l 410 647 l 410 0 z "},"Į":{"ha":500,"x_min":41,"x_max":437,"o":"m 210 -241 q 41 -155 41 -241 q 70 -88 41 -118 q 225 -12 119 -37 q 300 0 265 -3 l 62 0 l 62 925 l 437 925 l 437 0 l 315 0 q 257 -129 257 -61 q 300 -165 257 -165 q 334 -160 311 -165 l 343 -214 q 210 -241 281 -241 z "},"į":{"ha":458,"x_min":35,"x_max":410,"o":"m 410 693 l 49 693 l 49 925 l 410 925 l 410 693 m 203 -241 q 35 -155 35 -241 q 63 -88 35 -118 q 218 -12 112 -37 q 293 0 258 -3 l 49 0 l 49 647 l 410 647 l 410 0 l 309 0 q 250 -129 250 -61 q 293 -165 250 -165 q 326 -160 304 -165 l 336 -214 q 203 -241 274 -241 z "},"İ":{"ha":500,"x_min":62,"x_max":437,"o":"m 431 996 l 69 996 l 69 1214 l 431 1214 l 431 996 m 437 0 l 62 0 l 62 925 l 437 925 l 437 0 z "},"ı":{"ha":458,"x_min":49,"x_max":410,"o":"m 410 0 l 49 0 l 49 647 l 410 647 l 410 0 z "},"Ĳ":{"ha":1400,"x_min":62,"x_max":1358,"o":"m 1358 925 l 1358 396 q 1349 270 1358 327 q 1309 158 1339 213 q 921 -17 1214 -17 q 625 60 721 -17 q 529 262 529 136 q 640 503 529 388 l 860 415 q 831 319 831 362 q 901 252 831 252 q 983 355 983 252 l 983 925 l 1358 925 m 437 0 l 62 0 l 62 925 l 437 925 l 437 0 z "},"ĳ":{"ha":916,"x_min":49,"x_max":868,"o":"m 868 693 l 507 693 l 507 925 l 868 925 l 868 693 m 507 647 l 868 647 l 868 11 q 805 -179 868 -117 q 600 -241 742 -241 q 404 -200 496 -241 l 408 -64 q 454 -68 424 -68 q 495 -52 484 -68 q 507 -3 507 -35 l 507 647 m 410 0 l 49 0 l 49 647 l 410 647 l 410 0 m 410 693 l 49 693 l 49 925 l 410 925 l 410 693 z "},"Ĵ":{"ha":900,"x_min":29,"x_max":947,"o":"m 844 1149 l 947 986 l 710 986 l 673 1078 l 639 986 l 401 986 l 501 1149 l 844 1149 m 859 925 l 859 396 q 849 270 859 327 q 809 158 840 213 q 420 -17 715 -17 q 125 60 221 -17 q 29 262 29 136 q 140 503 29 388 l 359 415 q 330 319 330 362 q 401 252 330 252 q 484 355 484 252 l 484 925 l 859 925 z "},"ĵ":{"ha":458,"x_min":-54,"x_max":489,"o":"m 386 925 l 489 707 l 265 707 l 229 832 l 195 707 l -29 707 l 71 925 l 386 925 m 49 647 l 410 647 l 410 11 q 347 -179 410 -117 q 142 -241 283 -241 q -54 -200 37 -241 l -50 -64 q -5 -68 -35 -68 q 37 -52 25 -68 q 49 -3 48 -35 l 49 647 z "},"Ķ":{"ha":1095,"x_min":56,"x_max":1084,"o":"m 676 -83 l 676 -222 q 406 -411 676 -407 l 397 -339 q 538 -262 526 -331 l 395 -262 l 395 -83 l 676 -83 m 431 0 l 56 0 l 56 925 l 431 925 l 431 595 l 667 925 l 1075 925 l 800 549 l 1084 0 l 643 0 l 507 290 l 431 183 l 431 0 z "},"ķ":{"ha":911,"x_min":49,"x_max":907,"o":"m 618 -83 l 618 -222 q 347 -411 618 -407 l 339 -339 q 479 -262 468 -331 l 336 -262 l 336 -83 l 618 -83 m 410 0 l 49 0 l 49 925 l 410 925 l 410 439 l 557 647 l 893 647 l 685 379 l 907 0 l 538 0 l 450 192 l 410 132 l 410 0 z "},"ĸ":{"ha":911,"x_min":49,"x_max":907,"o":"m 410 0 l 49 0 l 49 647 l 410 647 l 410 439 l 557 647 l 893 647 l 685 379 l 907 0 l 538 0 l 450 192 l 410 132 l 410 0 z "},"Ĺ":{"ha":854,"x_min":56,"x_max":823,"o":"m 493 1158 l 357 986 l 122 986 l 179 1158 l 493 1158 m 823 0 l 56 0 l 56 925 l 431 925 l 431 250 l 823 250 l 823 0 z "},"ĺ":{"ha":458,"x_min":49,"x_max":485,"o":"m 485 1158 l 349 986 l 114 986 l 171 1158 l 485 1158 m 410 0 l 49 0 l 49 925 l 410 925 l 410 0 z "},"Ļ":{"ha":854,"x_min":56,"x_max":823,"o":"m 597 -83 l 597 -222 q 326 -411 597 -407 l 318 -339 q 458 -262 447 -331 l 315 -262 l 315 -83 l 597 -83 m 823 0 l 56 0 l 56 925 l 431 925 l 431 250 l 823 250 l 823 0 z "},"ļ":{"ha":458,"x_min":49,"x_max":410,"o":"m 366 -83 l 366 -222 q 94 -411 366 -407 l 86 -339 q 227 -262 215 -331 l 83 -262 l 83 -83 l 366 -83 m 410 0 l 49 0 l 49 925 l 410 925 l 410 0 z "},"Ľ":{"ha":854,"x_min":56,"x_max":823,"o":"m 803 925 l 803 728 q 532 539 803 543 l 524 611 q 664 688 652 619 l 521 688 l 521 925 l 803 925 m 823 0 l 56 0 l 56 925 l 431 925 l 431 250 l 823 250 l 823 0 z "},"ľ":{"ha":762,"x_min":49,"x_max":762,"o":"m 762 925 l 762 728 q 492 539 762 543 l 484 611 q 624 688 612 619 l 481 688 l 481 925 l 762 925 m 410 0 l 49 0 l 49 925 l 410 925 l 410 0 z "},"Ŀ":{"ha":854,"x_min":56,"x_max":823,"o":"m 798 334 l 494 334 l 494 612 l 798 612 l 798 334 m 823 0 l 56 0 l 56 925 l 431 925 l 431 250 l 823 250 l 823 0 z "},"ŀ":{"ha":760,"x_min":49,"x_max":739,"o":"m 739 178 l 467 178 l 467 457 l 739 457 l 739 178 m 410 0 l 49 0 l 49 925 l 410 925 l 410 0 z "},"Ł":{"ha":932,"x_min":4,"x_max":901,"o":"m 134 925 l 509 925 l 509 623 l 671 701 l 720 602 l 509 498 l 509 250 l 901 250 l 901 0 l 134 0 l 134 317 l 53 278 l 4 378 l 134 440 l 134 925 z "},"ł":{"ha":611,"x_min":7,"x_max":611,"o":"m 118 925 l 479 925 l 479 625 l 566 667 l 611 572 l 479 509 l 479 0 l 118 0 l 118 335 l 53 304 l 7 399 l 118 452 l 118 925 z "},"Ń":{"ha":1119,"x_min":56,"x_max":1064,"o":"m 818 1158 l 682 986 l 447 986 l 504 1158 l 818 1158 m 389 0 l 56 0 l 56 925 l 418 925 l 730 507 l 730 925 l 1064 925 l 1064 0 l 701 0 l 389 416 l 389 0 z "},"ń":{"ha":903,"x_min":49,"x_max":857,"o":"m 684 925 l 542 715 l 325 715 l 393 925 l 684 925 m 857 0 l 496 0 l 496 351 q 458 399 496 399 q 410 302 410 399 l 410 0 l 49 0 l 49 647 l 325 647 l 379 461 q 469 606 407 551 q 623 661 530 661 q 857 334 857 661 l 857 0 z "},"Ņ":{"ha":1119,"x_min":56,"x_max":1064,"o":"m 707 -83 l 707 -222 q 436 -411 707 -407 l 428 -339 q 568 -262 557 -331 l 425 -262 l 425 -83 l 707 -83 m 389 0 l 56 0 l 56 925 l 418 925 l 730 507 l 730 925 l 1064 925 l 1064 0 l 701 0 l 389 416 l 389 0 z "},"ņ":{"ha":903,"x_min":49,"x_max":857,"o":"m 602 -83 l 602 -222 q 330 -411 602 -407 l 322 -339 q 463 -262 451 -331 l 319 -262 l 319 -83 l 602 -83 m 857 0 l 496 0 l 496 351 q 458 399 496 399 q 410 302 410 399 l 410 0 l 49 0 l 49 647 l 325 647 l 379 461 q 469 606 407 551 q 623 661 530 661 q 857 334 857 661 l 857 0 z "},"Ň":{"ha":1119,"x_min":56,"x_max":1064,"o":"m 840 1149 l 737 986 l 395 986 l 294 1149 l 532 1149 l 567 1057 l 603 1149 l 840 1149 m 389 0 l 56 0 l 56 925 l 418 925 l 730 507 l 730 925 l 1064 925 l 1064 0 l 701 0 l 389 416 l 389 0 z "},"ň":{"ha":903,"x_min":49,"x_max":857,"o":"m 704 925 l 602 707 l 286 707 l 186 925 l 410 925 l 444 800 l 481 925 l 704 925 m 857 0 l 496 0 l 496 351 q 458 399 496 399 q 410 302 410 399 l 410 0 l 49 0 l 49 647 l 325 647 l 379 461 q 469 606 407 551 q 623 661 530 661 q 857 334 857 661 l 857 0 z "},"ŉ":{"ha":1190,"x_min":11,"x_max":1145,"o":"m 1145 0 l 783 0 l 783 351 q 746 399 783 399 q 697 302 697 399 l 697 0 l 336 0 l 336 647 l 612 647 l 667 461 q 756 606 694 551 q 909 661 818 661 q 1145 334 1144 661 l 1145 0 m 275 925 l 275 721 q 219 553 275 608 q 33 488 163 498 l 20 581 q 134 660 134 593 l 11 660 l 11 925 l 275 925 z "},"Ŋ":{"ha":1119,"x_min":56,"x_max":1064,"o":"m 389 0 l 56 0 l 56 925 l 418 925 l 730 507 l 730 925 l 1064 925 l 1064 11 q 1001 -179 1064 -117 q 796 -241 938 -241 q 600 -200 692 -241 l 604 -64 q 650 -68 620 -68 q 691 -52 680 -68 q 703 -3 703 -36 l 703 0 l 389 416 l 389 0 z "},"ŋ":{"ha":903,"x_min":49,"x_max":857,"o":"m 397 -64 q 442 -68 412 -68 q 484 -52 472 -68 q 496 -3 496 -36 l 496 351 q 458 399 496 399 q 410 302 410 399 l 410 0 l 49 0 l 49 647 l 325 647 l 379 461 q 469 606 407 551 q 623 661 530 661 q 857 334 857 661 l 857 11 q 793 -179 857 -117 q 589 -241 730 -241 q 393 -200 484 -241 l 397 -64 z "},"Ō":{"ha":1122,"x_min":25,"x_max":1097,"o":"m 844 993 l 279 993 l 279 1153 l 844 1153 l 844 993 m 673 310 q 691 340 673 310 q 708 463 708 370 q 673 615 708 555 q 561 675 639 675 q 449 615 483 675 q 414 463 415 555 q 449 310 414 370 q 562 250 484 250 q 673 310 639 250 m 956 803 q 1026 733 956 803 q 1097 463 1097 664 q 956 122 1097 261 q 561 -17 814 -17 q 167 122 308 -17 q 25 463 26 261 q 167 803 25 664 q 562 942 309 942 q 956 803 814 942 z "},"ō":{"ha":858,"x_min":17,"x_max":842,"o":"m 699 726 l 161 726 l 161 904 l 699 904 l 699 726 m 481 323 q 468 433 480 407 q 429 460 456 460 q 391 433 403 460 q 378 323 378 407 q 390 214 378 240 q 429 187 401 187 q 468 214 456 187 q 481 323 480 240 m 729 570 q 842 323 842 479 q 729 77 842 168 q 429 -14 616 -14 q 129 77 242 -14 q 17 323 16 168 q 129 570 17 479 q 429 661 241 661 q 729 570 616 661 z "},"Ŏ":{"ha":1122,"x_min":25,"x_max":1097,"o":"m 766 1016 q 724 1002 766 1016 q 561 989 683 989 q 356 1016 439 989 q 273 1095 273 1043 q 293 1147 273 1120 l 528 1147 q 517 1114 517 1131 q 562 1079 517 1079 q 606 1114 606 1079 q 595 1147 606 1131 l 829 1147 q 848 1095 849 1120 q 766 1016 848 1043 m 673 310 q 691 340 673 310 q 708 463 708 370 q 673 615 708 555 q 561 675 639 675 q 449 615 483 675 q 414 463 415 555 q 449 310 414 370 q 562 250 484 250 q 673 310 639 250 m 956 803 q 1026 733 956 803 q 1097 463 1097 664 q 956 122 1097 261 q 561 -17 814 -17 q 167 122 308 -17 q 25 463 26 261 q 167 803 25 664 q 562 942 309 942 q 956 803 814 942 z "},"ŏ":{"ha":858,"x_min":17,"x_max":842,"o":"m 686 840 q 620 740 686 779 q 429 700 553 700 q 239 739 305 700 q 172 840 172 779 q 203 925 172 882 l 382 925 q 368 880 368 900 q 384 846 368 859 q 429 832 400 832 q 475 846 458 832 q 476 925 505 871 l 656 925 q 686 840 686 882 m 481 323 q 468 433 480 407 q 429 460 456 460 q 391 433 403 460 q 378 323 378 407 q 390 214 378 240 q 429 187 401 187 q 468 214 456 187 q 481 323 480 240 m 729 570 q 842 323 842 479 q 729 77 842 168 q 429 -14 616 -14 q 129 77 242 -14 q 17 323 16 168 q 129 570 17 479 q 429 661 241 661 q 729 570 616 661 z "},"Ő":{"ha":1122,"x_min":25,"x_max":1097,"o":"m 990 1158 l 854 986 l 612 986 l 676 1158 l 990 1158 m 612 1158 l 546 986 l 269 986 l 326 1158 l 612 1158 m 673 310 q 691 340 673 310 q 708 463 708 370 q 673 615 708 555 q 561 675 639 675 q 449 615 483 675 q 414 463 415 555 q 449 310 414 370 q 562 250 484 250 q 673 310 639 250 m 956 803 q 1026 733 956 803 q 1097 463 1097 664 q 956 122 1097 261 q 561 -17 814 -17 q 167 122 308 -17 q 25 463 26 261 q 167 803 25 664 q 562 942 309 942 q 956 803 814 942 z "},"ő":{"ha":858,"x_min":17,"x_max":842,"o":"m 800 925 l 729 715 l 472 715 l 521 925 l 800 925 m 461 925 l 412 715 l 157 715 l 204 925 l 461 925 m 481 323 q 468 433 480 407 q 429 460 456 460 q 391 433 403 460 q 378 323 378 407 q 390 214 378 240 q 429 187 401 187 q 468 214 456 187 q 481 323 480 240 m 729 570 q 842 323 842 479 q 729 77 842 168 q 429 -14 616 -14 q 129 77 242 -14 q 17 323 16 168 q 129 570 17 479 q 429 661 241 661 q 729 570 616 661 z "},"Œ":{"ha":1552,"x_min":25,"x_max":1504,"o":"m 673 310 q 691 340 673 310 q 708 463 708 370 q 673 615 708 555 q 561 675 639 675 q 449 615 483 675 q 414 463 415 555 q 449 310 414 370 q 562 250 484 250 q 673 310 639 250 m 1504 0 l 717 0 q 561 -17 636 -17 q 167 122 308 -17 q 25 463 26 261 q 167 803 25 664 q 561 942 309 942 q 720 925 647 942 l 1496 925 l 1496 676 l 1083 676 l 1083 557 l 1404 557 l 1404 376 l 1083 376 l 1083 249 l 1504 249 l 1504 0 z "},"œ":{"ha":1255,"x_min":17,"x_max":1226,"o":"m 890 489 q 842 396 842 489 l 842 378 l 924 378 q 926 418 926 400 q 890 489 926 489 m 481 323 q 468 433 480 407 q 429 460 456 460 q 391 433 403 460 q 378 323 378 407 q 390 214 378 240 q 429 187 401 187 q 468 214 456 187 q 481 323 480 240 m 897 174 q 935 214 935 174 q 930 239 935 226 l 1215 212 q 1219 172 1219 191 q 1137 33 1219 81 q 899 -14 1054 -14 q 643 81 743 -14 q 397 -14 563 -14 q 124 78 232 -14 q 17 323 16 170 q 124 570 17 477 q 401 661 232 661 q 654 561 545 661 q 907 661 738 661 q 1062 637 994 661 q 1179 549 1130 612 q 1226 386 1227 485 q 1215 286 1226 345 l 842 286 q 860 195 846 217 q 897 174 873 174 z "},"Ŕ":{"ha":1109,"x_min":56,"x_max":1103,"o":"m 786 1158 l 650 986 l 415 986 l 472 1158 l 786 1158 m 557 509 q 640 530 610 509 q 671 587 671 552 q 645 642 671 622 q 571 663 619 663 l 431 663 l 431 509 l 557 509 m 1046 675 q 977 508 1046 578 q 745 419 909 438 q 783 421 758 420 q 924 376 878 421 q 997 228 970 332 q 1021 140 1013 168 q 1103 0 1046 63 l 686 0 q 608 163 637 57 q 567 311 579 270 q 511 355 550 356 l 431 355 l 431 0 l 56 0 l 56 925 l 616 925 q 939 857 833 925 q 1046 675 1046 789 z "},"ŕ":{"ha":699,"x_min":49,"x_max":686,"o":"m 589 925 l 447 715 l 231 715 l 298 925 l 589 925 m 488 313 q 460 368 488 368 q 421 323 432 368 q 410 170 410 279 l 410 0 l 49 0 l 49 647 l 325 647 l 387 427 l 387 449 q 429 604 388 547 q 540 661 469 661 q 648 609 610 661 q 686 479 686 557 q 603 249 686 349 l 482 261 q 488 313 488 294 z "},"Ŗ":{"ha":1109,"x_min":56,"x_max":1103,"o":"m 692 -83 l 692 -222 q 421 -411 692 -407 l 412 -339 q 553 -262 541 -331 l 410 -262 l 410 -83 l 692 -83 m 557 509 q 640 530 610 509 q 671 587 671 552 q 645 642 671 622 q 571 663 619 663 l 431 663 l 431 509 l 557 509 m 1046 675 q 977 508 1046 578 q 745 419 909 438 q 783 421 758 420 q 924 376 878 421 q 997 228 970 332 q 1021 140 1013 168 q 1103 0 1046 63 l 686 0 q 608 163 637 57 q 567 311 579 270 q 511 355 550 356 l 431 355 l 431 0 l 56 0 l 56 925 l 616 925 q 939 857 833 925 q 1046 675 1046 789 z "},"ŗ":{"ha":699,"x_min":49,"x_max":686,"o":"m 370 -83 l 370 -222 q 98 -411 370 -407 l 90 -339 q 231 -262 219 -331 l 87 -262 l 87 -83 l 370 -83 m 488 313 q 460 368 488 368 q 421 323 432 368 q 410 170 410 279 l 410 0 l 49 0 l 49 647 l 325 647 l 387 427 l 387 449 q 429 604 388 547 q 540 661 469 661 q 648 609 610 661 q 686 479 686 557 q 603 249 686 349 l 482 261 q 488 313 488 294 z "},"Ř":{"ha":1109,"x_min":56,"x_max":1103,"o":"m 806 1149 l 703 986 l 359 986 l 260 1149 l 497 1149 l 532 1057 l 568 1149 l 806 1149 m 557 509 q 640 530 610 509 q 671 587 671 552 q 645 642 671 622 q 571 663 619 663 l 431 663 l 431 509 l 557 509 m 1046 675 q 977 508 1046 578 q 745 419 909 438 q 783 421 758 420 q 924 376 878 421 q 997 228 970 332 q 1021 140 1013 168 q 1103 0 1046 63 l 686 0 q 608 163 637 57 q 567 311 579 270 q 511 355 550 356 l 431 355 l 431 0 l 56 0 l 56 925 l 616 925 q 939 857 833 925 q 1046 675 1046 789 z "},"ř":{"ha":699,"x_min":49,"x_max":686,"o":"m 627 925 l 524 707 l 208 707 l 109 925 l 332 925 l 367 800 l 403 925 l 627 925 m 488 313 q 460 368 488 368 q 421 323 432 368 q 410 170 410 279 l 410 0 l 49 0 l 49 647 l 325 647 l 387 427 l 387 449 q 429 604 388 547 q 540 661 469 661 q 648 609 610 661 q 686 479 686 557 q 603 249 686 349 l 482 261 q 488 313 488 294 z "},"Ś":{"ha":997,"x_min":28,"x_max":966,"o":"m 760 1158 l 624 986 l 389 986 l 446 1158 l 760 1158 m 966 301 q 852 68 966 153 q 511 -17 739 -17 q 253 19 380 -18 q 28 122 125 56 l 129 322 q 521 215 319 215 q 591 254 591 215 q 559 291 591 278 q 412 328 526 304 q 137 445 217 366 q 57 657 57 524 q 168 867 57 791 q 510 942 279 943 q 749 910 631 941 q 953 828 867 879 l 868 624 q 500 714 675 714 q 432 681 432 714 q 460 644 432 658 q 591 610 489 631 q 879 496 791 568 q 966 301 966 425 z "},"ś":{"ha":713,"x_min":22,"x_max":694,"o":"m 627 925 l 485 715 l 268 715 l 336 925 l 627 925 m 648 342 q 671 318 648 342 q 694 203 694 294 q 613 49 694 111 q 372 -14 532 -14 q 22 87 179 -14 l 96 248 q 195 195 134 218 q 301 171 256 171 q 347 193 347 171 q 314 220 347 212 q 108 304 164 254 q 52 450 52 355 q 136 603 52 545 q 389 661 221 661 q 690 579 557 661 l 627 421 q 528 461 586 445 q 434 476 469 477 q 399 460 399 476 q 414 441 399 449 q 494 418 431 435 q 648 342 602 389 z "},"Ŝ":{"ha":997,"x_min":28,"x_max":966,"o":"m 694 1149 l 798 986 l 559 986 l 524 1078 l 489 986 l 252 986 l 351 1149 l 694 1149 m 966 301 q 852 68 966 153 q 511 -17 739 -17 q 253 19 380 -18 q 28 122 125 56 l 129 322 q 521 215 319 215 q 591 254 591 215 q 559 291 591 278 q 412 328 526 304 q 137 445 217 366 q 57 657 57 524 q 168 867 57 791 q 510 942 279 943 q 749 910 631 941 q 953 828 867 879 l 868 624 q 500 714 675 714 q 432 681 432 714 q 460 644 432 658 q 591 610 489 631 q 879 496 791 568 q 966 301 966 425 z "},"ŝ":{"ha":713,"x_min":22,"x_max":694,"o":"m 529 925 l 632 707 l 408 707 l 372 832 l 338 707 l 114 707 l 214 925 l 529 925 m 648 342 q 671 318 648 342 q 694 203 694 294 q 613 49 694 111 q 372 -14 532 -14 q 22 87 179 -14 l 96 248 q 195 195 134 218 q 301 171 256 171 q 347 193 347 171 q 314 220 347 212 q 108 304 164 254 q 52 450 52 355 q 136 603 52 545 q 389 661 221 661 q 690 579 557 661 l 627 421 q 528 461 586 445 q 434 476 469 477 q 399 460 399 476 q 414 441 399 449 q 494 418 431 435 q 648 342 602 389 z "},"Ş":{"ha":997,"x_min":28,"x_max":966,"o":"m 693 -136 q 518 -241 693 -242 q 343 -204 404 -241 l 361 -150 q 435 -165 397 -165 q 473 -140 473 -165 q 437 -114 473 -114 q 386 -117 401 -114 l 435 -14 q 28 122 195 7 l 129 322 q 521 215 319 215 q 591 254 591 215 q 559 291 591 278 q 412 328 526 304 q 137 445 217 366 q 57 657 57 524 q 168 867 57 791 q 510 942 279 943 q 749 910 631 941 q 953 828 867 879 l 868 624 q 500 714 675 714 q 432 681 432 714 q 460 644 432 658 q 591 610 489 631 q 879 496 791 568 q 966 301 966 425 q 852 68 966 153 q 511 -17 739 -17 l 478 -89 q 575 -50 518 -50 q 663 -73 632 -50 q 693 -136 693 -96 z "},"ş":{"ha":713,"x_min":22,"x_max":694,"o":"m 648 342 q 671 318 648 342 q 694 203 694 294 q 613 49 694 111 q 372 -14 532 -14 l 338 -89 q 435 -50 378 -50 q 522 -73 492 -50 q 553 -136 553 -96 q 378 -241 553 -242 q 203 -204 264 -241 l 221 -150 q 295 -165 257 -165 q 334 -139 333 -165 q 297 -114 334 -114 q 245 -117 260 -114 l 296 -9 q 22 87 147 6 l 96 248 q 195 195 134 218 q 301 171 256 171 q 347 193 347 171 q 314 220 347 212 q 108 304 164 254 q 52 450 52 355 q 136 603 52 545 q 389 661 221 661 q 690 579 557 661 l 627 421 q 528 461 586 445 q 434 476 469 477 q 399 460 399 476 q 414 441 399 449 q 494 418 431 435 q 648 342 602 389 z "},"Š":{"ha":997,"x_min":28,"x_max":966,"o":"m 786 1149 l 684 986 l 340 986 l 240 1149 l 478 1149 l 513 1057 l 549 1149 l 786 1149 m 966 301 q 852 68 966 153 q 511 -17 739 -17 q 253 19 380 -18 q 28 122 125 56 l 129 322 q 521 215 319 215 q 591 254 591 215 q 559 291 591 278 q 412 328 526 304 q 137 445 217 366 q 57 657 57 524 q 168 867 57 791 q 510 942 279 943 q 749 910 631 941 q 953 828 867 879 l 868 624 q 500 714 675 714 q 432 681 432 714 q 460 644 432 658 q 591 610 489 631 q 879 496 791 568 q 966 301 966 425 z "},"š":{"ha":713,"x_min":22,"x_max":694,"o":"m 635 925 l 532 707 l 216 707 l 117 925 l 340 925 l 375 800 l 411 925 l 635 925 m 648 342 q 671 318 648 342 q 694 203 694 294 q 613 49 694 111 q 372 -14 532 -14 q 22 87 179 -14 l 96 248 q 195 195 134 218 q 301 171 256 171 q 347 193 347 171 q 314 220 347 212 q 108 304 164 254 q 52 450 52 355 q 136 603 52 545 q 389 661 221 661 q 690 579 557 661 l 627 421 q 528 461 586 445 q 434 476 469 477 q 399 460 399 476 q 414 441 399 449 q 494 418 431 435 q 648 342 602 389 z "},"Ţ":{"ha":975,"x_min":21,"x_max":954,"o":"m 628 -83 l 628 -222 q 357 -411 628 -407 l 349 -339 q 489 -262 477 -331 l 346 -262 l 346 -83 l 628 -83 m 954 647 l 675 647 l 675 0 l 300 0 l 300 647 l 21 647 l 21 925 l 954 925 l 954 647 z "},"ţ":{"ha":589,"x_min":3,"x_max":564,"o":"m 461 -83 l 461 -222 q 191 -411 461 -407 l 182 -339 q 322 -262 311 -331 l 179 -262 l 179 -83 l 461 -83 m 79 239 l 79 510 l 3 510 l 3 647 l 79 647 l 79 833 l 440 857 l 440 647 l 559 647 l 559 510 l 440 510 l 440 225 q 452 176 439 192 q 496 160 464 160 q 559 170 529 160 l 564 33 q 345 -14 483 -14 q 142 49 206 -14 q 79 239 79 111 z "},"Ť":{"ha":975,"x_min":21,"x_max":954,"o":"m 761 1149 l 659 986 l 315 986 l 215 1149 l 453 1149 l 488 1057 l 524 1149 l 761 1149 m 954 647 l 675 647 l 675 0 l 300 0 l 300 647 l 21 647 l 21 925 l 954 925 l 954 647 z "},"ť":{"ha":733,"x_min":3,"x_max":733,"o":"m 733 1109 l 733 989 q 682 830 734 884 q 522 760 631 776 l 509 835 q 596 914 584 850 l 500 914 l 500 1109 l 733 1109 m 79 239 l 79 510 l 3 510 l 3 647 l 79 647 l 79 833 l 440 857 l 440 647 l 559 647 l 559 510 l 440 510 l 440 225 q 452 176 439 192 q 496 160 464 160 q 559 170 529 160 l 564 33 q 345 -14 483 -14 q 142 49 206 -14 q 79 239 79 111 z "},"Ŧ":{"ha":975,"x_min":21,"x_max":954,"o":"m 147 323 l 147 488 l 300 488 l 300 647 l 21 647 l 21 925 l 954 925 l 954 647 l 675 647 l 675 488 l 828 488 l 828 323 l 675 323 l 675 0 l 300 0 l 300 323 l 147 323 z "},"ŧ":{"ha":606,"x_min":21,"x_max":582,"o":"m 21 290 l 21 428 l 97 428 l 97 510 l 21 510 l 21 647 l 97 647 l 97 833 l 458 857 l 458 647 l 578 647 l 578 510 l 458 510 l 458 428 l 578 428 l 578 290 l 458 290 l 458 225 q 470 176 458 192 q 514 160 481 160 q 578 170 547 160 l 582 33 q 362 -14 500 -14 q 161 49 224 -14 q 97 239 98 111 l 97 290 l 21 290 z "},"Ũ":{"ha":1033,"x_min":49,"x_max":985,"o":"m 785 1092 q 751 1010 785 1043 q 667 977 716 977 q 534 1006 618 977 q 427 1035 450 1035 q 404 1019 404 1035 q 412 1000 404 1011 l 351 962 q 278 1084 277 1015 q 312 1160 278 1129 q 401 1190 346 1190 q 530 1160 456 1190 q 629 1131 605 1131 q 653 1153 653 1131 q 640 1178 652 1167 l 717 1214 q 785 1092 785 1169 m 985 372 q 847 64 985 162 q 534 -17 734 -17 q 112 151 227 -17 q 49 372 49 243 l 49 925 l 424 925 l 424 368 q 448 281 423 311 q 532 250 472 250 q 616 281 591 250 q 640 368 640 311 l 640 925 l 985 925 l 985 372 z "},"ũ":{"ha":903,"x_min":46,"x_max":854,"o":"m 703 835 q 669 748 703 783 q 574 713 636 713 q 465 742 538 713 q 365 771 391 771 q 339 746 339 771 q 353 714 339 730 l 278 688 q 210 812 210 735 q 243 901 210 867 q 334 936 278 936 q 457 906 389 936 q 548 876 525 876 q 571 899 571 876 q 557 926 570 914 l 636 960 q 703 835 703 917 m 46 647 l 407 647 l 407 296 q 444 249 407 248 q 493 345 493 249 l 493 647 l 854 647 l 854 0 l 578 0 l 524 186 q 434 41 496 96 q 281 -14 372 -14 q 46 314 46 -14 l 46 647 z "},"Ū":{"ha":1033,"x_min":49,"x_max":985,"o":"m 822 993 l 257 993 l 257 1153 l 822 1153 l 822 993 m 985 372 q 847 64 985 162 q 534 -17 734 -17 q 112 151 227 -17 q 49 372 49 243 l 49 925 l 424 925 l 424 368 q 448 281 423 311 q 532 250 472 250 q 616 281 591 250 q 640 368 640 311 l 640 925 l 985 925 l 985 372 z "},"ū":{"ha":903,"x_min":46,"x_max":854,"o":"m 729 726 l 192 726 l 192 904 l 729 904 l 729 726 m 46 647 l 407 647 l 407 296 q 444 249 407 248 q 493 345 493 249 l 493 647 l 854 647 l 854 0 l 578 0 l 524 186 q 434 41 496 96 q 281 -14 372 -14 q 46 314 46 -14 l 46 647 z "},"Ŭ":{"ha":1033,"x_min":49,"x_max":985,"o":"m 829 1095 q 747 1016 829 1043 q 542 989 664 989 q 337 1016 420 989 q 254 1095 254 1043 q 273 1147 254 1120 l 509 1147 q 497 1114 498 1131 q 542 1079 497 1079 q 586 1114 587 1079 q 575 1147 586 1131 l 810 1147 q 829 1095 829 1120 m 985 372 q 847 64 985 162 q 534 -17 734 -17 q 112 151 227 -17 q 49 372 49 243 l 49 925 l 424 925 l 424 368 q 448 281 423 311 q 532 250 472 250 q 616 281 591 250 q 640 368 640 311 l 640 925 l 985 925 l 985 372 z "},"ŭ":{"ha":903,"x_min":46,"x_max":854,"o":"m 713 840 q 647 740 713 779 q 456 700 581 700 q 264 739 331 700 q 199 840 198 779 q 229 925 199 882 l 408 925 q 395 880 395 900 q 411 846 395 859 q 456 832 427 832 q 500 846 484 832 q 503 925 531 871 l 682 925 q 713 840 713 882 m 46 647 l 407 647 l 407 296 q 444 249 407 248 q 493 345 493 249 l 493 647 l 854 647 l 854 0 l 578 0 l 524 186 q 434 41 496 96 q 281 -14 372 -14 q 46 314 46 -14 l 46 647 z "},"Ů":{"ha":1033,"x_min":49,"x_max":985,"o":"m 571 1097 q 559 1129 571 1117 q 529 1141 547 1141 q 499 1129 511 1141 q 488 1097 488 1117 q 499 1065 488 1078 q 529 1053 511 1053 q 559 1065 547 1053 q 571 1097 571 1077 m 658 1195 q 711 1097 711 1158 q 658 1000 711 1036 q 529 964 604 964 q 400 1000 453 964 q 347 1097 347 1036 q 401 1194 347 1158 q 529 1230 454 1230 q 658 1195 604 1230 m 985 372 q 847 64 985 162 q 534 -17 734 -17 q 112 151 227 -17 q 49 372 49 243 l 49 925 l 424 925 l 424 368 q 448 281 423 311 q 532 250 472 250 q 616 281 591 250 q 640 368 640 311 l 640 925 l 985 925 l 985 372 z "},"ů":{"ha":903,"x_min":46,"x_max":854,"o":"m 486 799 q 491 805 486 799 q 497 831 497 811 q 486 863 497 850 q 456 875 474 875 q 426 863 437 875 q 414 831 414 850 q 426 799 414 811 q 456 787 438 787 q 486 799 474 787 m 637 831 q 584 734 637 770 q 456 697 530 697 q 327 733 381 697 q 273 830 273 769 q 327 928 273 891 q 456 964 380 964 q 585 928 532 964 q 637 831 637 892 m 46 647 l 407 647 l 407 296 q 444 249 407 248 q 493 345 493 249 l 493 647 l 854 647 l 854 0 l 578 0 l 524 186 q 434 41 496 96 q 281 -14 372 -14 q 46 314 46 -14 l 46 647 z "},"Ű":{"ha":1034,"x_min":49,"x_max":985,"o":"m 939 1158 l 803 986 l 561 986 l 625 1158 l 939 1158 m 561 1158 l 494 986 l 218 986 l 275 1158 l 561 1158 m 985 372 q 847 64 985 162 q 534 -17 734 -17 q 112 151 227 -17 q 49 372 49 243 l 49 925 l 424 925 l 424 368 q 448 281 423 311 q 532 250 472 250 q 616 281 591 250 q 640 368 640 311 l 640 925 l 985 925 l 985 372 z "},"ű":{"ha":909,"x_min":46,"x_max":854,"o":"m 821 925 l 750 715 l 493 715 l 542 925 l 821 925 m 482 925 l 433 715 l 178 715 l 225 925 l 482 925 m 46 647 l 407 647 l 407 296 q 444 249 407 248 q 493 345 493 249 l 493 647 l 854 647 l 854 0 l 578 0 l 524 186 q 434 41 496 96 q 281 -14 372 -14 q 46 314 46 -14 l 46 647 z "},"Ų":{"ha":1033,"x_min":49,"x_max":985,"o":"m 586 -241 q 416 -165 416 -241 q 506 -74 416 -115 q 648 -18 584 -37 q 717 4 711 2 q 529 -17 633 -17 q 339 5 425 -17 q 116 145 183 46 q 49 372 49 243 l 49 925 l 424 925 l 424 368 q 448 281 423 311 q 532 250 472 250 q 616 281 591 250 q 640 368 640 311 l 640 925 l 985 925 l 985 372 q 943 177 985 253 q 800 36 901 101 q 632 -127 632 -74 q 679 -165 632 -165 q 722 -160 700 -165 l 732 -214 q 586 -241 662 -241 z "},"ų":{"ha":903,"x_min":46,"x_max":854,"o":"m 605 -241 q 431 -155 430 -241 q 467 -91 431 -121 q 718 0 538 -31 l 578 0 l 524 186 q 434 41 496 96 q 281 -14 372 -14 q 46 314 46 -14 l 46 647 l 407 647 l 407 296 q 444 249 407 248 q 493 345 493 249 l 493 647 l 854 647 l 854 0 l 746 0 q 646 -122 646 -56 q 693 -165 646 -165 q 736 -160 713 -165 l 746 -214 q 605 -241 684 -241 z "},"Ŵ":{"ha":1516,"x_min":7,"x_max":1510,"o":"m 937 1149 l 1040 986 l 803 986 l 766 1078 l 732 986 l 494 986 l 595 1149 l 937 1149 m 953 925 l 1074 493 l 1200 925 l 1510 925 l 1249 0 l 903 0 l 766 490 l 614 0 l 279 0 l 7 925 l 389 925 l 503 493 l 623 925 l 953 925 z "},"ŵ":{"ha":1230,"x_min":-7,"x_max":1242,"o":"m 781 925 l 884 707 l 660 707 l 624 832 l 589 707 l 366 707 l 465 925 l 781 925 m 536 0 l 208 0 l -7 647 l 328 647 l 392 292 l 484 647 l 772 647 l 857 292 l 914 647 l 1242 647 l 1026 0 l 713 0 l 624 278 l 536 0 z "},"Ŷ":{"ha":1030,"x_min":7,"x_max":1023,"o":"m 707 1149 l 810 986 l 572 986 l 536 1078 l 501 986 l 264 986 l 364 1149 l 707 1149 m 701 0 l 326 0 l 326 326 l 7 925 l 400 925 l 536 623 l 676 925 l 1023 925 l 701 325 l 701 0 z "},"ŷ":{"ha":814,"x_min":-7,"x_max":828,"o":"m 587 925 l 690 707 l 467 707 l 431 832 l 396 707 l 172 707 l 272 925 l 587 925 m 420 -228 q 285 -241 373 -241 q 109 -205 197 -241 l 114 -71 q 174 -78 142 -77 q 260 -22 243 -78 l -7 647 l 326 647 l 427 271 l 530 647 l 828 647 l 608 14 q 561 -100 583 -58 q 504 -178 538 -142 q 420 -228 469 -213 z "},"Ÿ":{"ha":1030,"x_min":7,"x_max":1023,"o":"m 500 993 l 239 993 l 239 1173 l 500 1173 l 500 993 m 836 993 l 570 993 l 570 1173 l 836 1173 l 836 993 m 701 0 l 326 0 l 326 326 l 7 925 l 400 925 l 536 623 l 676 925 l 1023 925 l 701 325 l 701 0 z "},"Ź":{"ha":987,"x_min":49,"x_max":943,"o":"m 750 1158 l 614 986 l 379 986 l 436 1158 l 750 1158 m 943 0 l 49 0 l 49 170 l 456 692 l 64 692 l 64 925 l 926 925 l 926 743 l 539 236 l 943 236 l 943 0 z "},"ź":{"ha":758,"x_min":41,"x_max":722,"o":"m 633 925 l 492 715 l 275 715 l 343 925 l 633 925 m 43 453 l 43 647 l 715 647 l 715 453 l 501 195 l 722 195 l 722 0 l 41 0 l 41 138 l 328 453 l 43 453 z "},"Ż":{"ha":987,"x_min":49,"x_max":943,"o":"m 692 996 l 330 996 l 330 1214 l 692 1214 l 692 996 m 943 0 l 49 0 l 49 170 l 456 692 l 64 692 l 64 925 l 926 925 l 926 743 l 539 236 l 943 236 l 943 0 z "},"ż":{"ha":758,"x_min":41,"x_max":722,"o":"m 570 707 l 208 707 l 208 925 l 570 925 l 570 707 m 43 453 l 43 647 l 715 647 l 715 453 l 501 195 l 722 195 l 722 0 l 41 0 l 41 138 l 328 453 l 43 453 z "},"Ž":{"ha":987,"x_min":49,"x_max":943,"o":"m 785 1149 l 682 986 l 339 986 l 239 1149 l 476 1149 l 511 1057 l 547 1149 l 785 1149 m 943 0 l 49 0 l 49 170 l 456 692 l 64 692 l 64 925 l 926 925 l 926 743 l 539 236 l 943 236 l 943 0 z "},"ž":{"ha":758,"x_min":41,"x_max":722,"o":"m 652 925 l 549 707 l 233 707 l 134 925 l 357 925 l 392 800 l 428 925 l 652 925 m 43 453 l 43 647 l 715 647 l 715 453 l 501 195 l 722 195 l 722 0 l 41 0 l 41 138 l 328 453 l 43 453 z "},"ƒ":{"ha":728,"x_min":22,"x_max":707,"o":"m 232 -241 q 22 -191 100 -241 l 43 -64 q 92 -68 66 -68 q 129 -53 118 -68 q 144 -3 140 -38 l 182 429 l 96 429 l 107 567 l 195 567 l 205 690 q 285 880 216 818 q 487 943 354 943 q 707 888 620 943 l 676 761 q 584 754 608 781 q 568 704 571 739 l 555 567 l 659 567 l 647 429 l 543 429 l 507 11 q 430 -180 496 -118 q 232 -241 363 -241 z "},"Ǻ":{"ha":1137,"x_min":14,"x_max":1131,"o":"m 771 1341 l 697 1207 l 463 1207 l 507 1341 l 771 1341 m 611 1028 q 568 1076 611 1077 q 525 1028 525 1077 q 568 979 525 979 q 611 1028 612 979 m 528 647 l 425 326 l 631 326 l 528 647 m 701 1133 q 757 1030 757 1092 q 700 925 757 968 l 787 925 l 1131 0 l 734 0 l 693 129 l 361 129 l 321 0 l 14 0 l 355 925 l 436 925 q 379 1029 379 967 q 435 1132 379 1092 q 568 1172 492 1172 q 701 1133 646 1172 z "},"ǻ":{"ha":890,"x_min":32,"x_max":873,"o":"m 629 1146 l 567 997 l 350 997 l 399 1146 l 629 1146 m 486 831 q 475 863 487 850 q 444 875 463 875 q 414 863 426 875 q 403 831 403 850 q 414 799 403 811 q 444 787 426 787 q 475 799 463 787 q 486 831 487 811 m 627 831 q 573 734 627 770 q 444 697 519 697 q 316 733 369 697 q 262 830 263 769 q 316 928 262 891 q 445 964 370 964 q 573 928 519 964 q 627 831 627 892 m 444 187 l 444 229 q 366 175 365 220 q 404 139 366 139 q 444 187 444 138 m 221 -14 q 82 34 132 -14 q 32 164 32 81 q 323 335 32 335 q 443 328 374 335 l 443 452 q 414 489 443 489 q 385 452 385 489 q 395 408 385 433 l 82 342 q 53 449 53 397 q 152 603 53 545 q 435 661 251 661 q 712 597 620 661 q 804 395 804 534 l 804 193 q 833 150 804 151 q 873 160 858 151 l 873 43 q 787 0 846 15 q 669 -14 729 -15 q 556 20 608 -14 q 484 111 504 53 q 380 17 449 47 q 221 -14 311 -14 z "},"Ǽ":{"ha":1483,"x_min":14,"x_max":1435,"o":"m 857 1158 l 721 986 l 486 986 l 543 1158 l 857 1158 m 528 647 l 425 326 l 631 326 l 528 647 m 1426 925 l 1426 676 l 879 676 l 924 557 l 1335 557 l 1335 376 l 990 376 l 1038 249 l 1435 249 l 1435 0 l 734 0 l 693 129 l 361 129 l 321 0 l 14 0 l 355 925 l 1426 925 z "},"ǽ":{"ha":1217,"x_min":32,"x_max":1187,"o":"m 787 925 l 646 715 l 429 715 l 497 925 l 787 925 m 366 175 q 406 138 366 138 q 463 187 447 138 q 452 231 453 210 q 366 175 366 220 m 848 489 q 804 385 804 489 l 804 378 l 886 378 q 889 414 889 406 q 848 489 888 489 m 860 174 q 897 215 897 174 q 893 239 897 227 l 1178 212 q 1183 164 1183 190 q 822 -14 1183 -14 q 640 14 722 -14 q 514 93 558 41 q 377 8 446 31 q 220 -14 308 -14 q 82 34 132 -14 q 32 164 32 81 q 317 330 32 331 q 443 323 371 330 q 450 395 442 363 q 458 444 458 426 q 422 489 458 489 q 386 449 387 489 q 395 408 386 431 l 82 342 q 54 461 54 406 q 136 607 54 553 q 386 661 217 661 q 593 570 530 661 q 836 661 663 661 q 1076 601 975 661 q 1158 514 1128 570 q 1187 397 1187 458 q 1178 286 1187 335 l 804 286 q 822 195 808 217 q 860 174 836 174 z "},"Ǿ":{"ha":1122,"x_min":25,"x_max":1097,"o":"m 812 1158 l 676 986 l 441 986 l 498 1158 l 812 1158 m 708 463 q 701 536 708 497 l 447 313 q 561 250 483 250 q 673 310 639 250 q 708 463 708 370 m 414 463 q 421 387 414 427 l 675 612 q 559 675 636 675 q 448 615 483 675 q 414 463 414 555 m 144 144 q 25 469 25 275 q 167 803 25 663 q 561 942 309 942 q 922 831 779 942 l 1048 942 l 1097 886 l 978 781 q 1097 456 1097 650 q 956 122 1097 262 q 561 -17 814 -17 q 200 93 341 -17 l 75 -17 l 25 39 l 144 144 z "},"ǿ":{"ha":858,"x_min":17,"x_max":842,"o":"m 672 925 l 530 715 l 314 715 l 382 925 l 672 925 m 378 323 l 378 315 l 476 396 q 460 447 472 435 q 426 460 449 460 q 391 433 403 460 q 378 323 378 407 m 481 323 l 481 332 l 380 253 q 396 201 384 214 q 432 187 408 187 q 468 214 456 187 q 481 323 480 240 m 751 550 q 842 315 842 463 q 729 77 842 168 q 435 -14 616 -14 q 146 64 253 -14 l 49 -14 l 17 26 l 106 97 q 17 332 17 186 q 129 570 17 479 q 422 661 241 661 q 711 583 602 661 l 808 661 l 840 621 l 751 550 z "},"Ș":{"ha":997,"x_min":28,"x_max":966,"o":"m 664 -83 l 664 -222 q 393 -411 664 -407 l 385 -339 q 525 -262 513 -331 l 382 -262 l 382 -83 l 664 -83 m 966 301 q 852 68 966 153 q 511 -17 739 -17 q 253 19 380 -18 q 28 122 125 56 l 129 322 q 521 215 319 215 q 591 254 591 215 q 559 291 591 278 q 412 328 526 304 q 137 445 217 366 q 57 657 57 524 q 168 867 57 791 q 510 942 279 943 q 749 910 631 941 q 953 828 867 879 l 868 624 q 500 714 675 714 q 432 681 432 714 q 460 644 432 658 q 591 610 489 631 q 879 496 791 568 q 966 301 966 425 z "},"ș":{"ha":713,"x_min":22,"x_max":694,"o":"m 515 -83 l 515 -222 q 244 -411 515 -407 l 236 -339 q 376 -262 365 -331 l 233 -262 l 233 -83 l 515 -83 m 648 342 q 671 318 648 342 q 694 203 694 294 q 613 49 694 111 q 372 -14 532 -14 q 22 87 179 -14 l 96 248 q 195 195 134 218 q 301 171 256 171 q 347 193 347 171 q 314 220 347 212 q 108 304 164 254 q 52 450 52 355 q 136 603 52 545 q 389 661 221 661 q 690 579 557 661 l 627 421 q 528 461 586 445 q 434 476 469 477 q 399 460 399 476 q 414 441 399 449 q 494 418 431 435 q 648 342 602 389 z "},"ˆ":{"ha":615,"x_min":49,"x_max":567,"o":"m 464 925 l 567 707 l 343 707 l 307 832 l 272 707 l 49 707 l 149 925 l 464 925 z "},"ˇ":{"ha":615,"x_min":49,"x_max":567,"o":"m 567 925 l 464 707 l 149 707 l 49 925 l 272 925 l 307 800 l 343 925 l 567 925 z "},"˘":{"ha":611,"x_min":49,"x_max":562,"o":"m 562 840 q 496 740 562 779 q 306 700 431 700 q 115 739 182 700 q 49 840 49 779 q 79 925 49 882 l 258 925 q 260 846 229 871 q 306 832 277 832 q 351 846 335 832 q 353 925 382 871 l 532 925 q 562 840 562 882 z "},"˙":{"ha":458,"x_min":49,"x_max":410,"o":"m 410 707 l 49 707 l 49 925 l 410 925 l 410 707 z "},"˚":{"ha":460,"x_min":49,"x_max":412,"o":"m 260 799 q 266 805 260 799 q 272 831 272 811 q 260 863 272 850 q 231 875 249 875 q 201 863 212 875 q 189 831 189 850 q 201 799 189 811 q 231 787 212 787 q 260 799 249 787 m 412 831 q 359 734 412 770 q 231 697 305 697 q 102 733 156 697 q 49 830 49 769 q 102 928 49 891 q 231 964 156 964 q 359 928 305 964 q 412 831 412 892 z "},"˛":{"ha":412,"x_min":41,"x_max":357,"o":"m 210 -241 q 41 -142 41 -241 q 96 -64 41 -99 q 329 0 195 0 l 357 0 q 257 -122 257 -56 q 304 -165 257 -165 q 347 -160 325 -165 l 357 -214 q 210 -241 294 -241 z "},"˜":{"ha":593,"x_min":50,"x_max":543,"o":"m 414 713 q 305 742 378 713 q 205 771 232 771 q 179 746 179 771 q 193 714 179 730 l 118 688 q 50 812 50 735 q 84 901 50 867 q 173 936 118 936 q 297 906 228 936 q 385 876 366 876 q 411 899 411 876 q 397 926 411 914 l 476 960 q 543 835 543 917 q 510 748 543 783 q 414 713 477 713 z "},"˝":{"ha":744,"x_min":56,"x_max":699,"o":"m 699 925 l 628 715 l 371 715 l 419 925 l 699 925 m 359 925 l 311 715 l 56 715 l 103 925 l 359 925 z "},"̦":{"ha":494,"x_min":60,"x_max":342,"o":"m 342 -83 l 342 -222 q 71 -411 342 -407 l 62 -339 q 203 -262 191 -331 l 60 -262 l 60 -83 l 342 -83 z "},"Ω":{"ha":1164,"x_min":46,"x_max":1118,"o":"m 1089 0 l 633 0 l 633 182 q 699 293 676 233 q 726 388 722 353 q 729 476 729 423 q 582 675 729 675 q 435 476 435 675 q 438 388 435 423 q 465 293 441 353 q 530 182 488 233 l 530 0 l 75 0 l 75 212 l 380 94 q 125 284 204 182 q 46 511 45 387 q 184 825 46 708 q 582 941 323 941 q 979 825 840 941 q 1118 511 1118 707 q 1039 284 1118 387 q 783 94 960 182 l 1089 212 l 1089 0 z "},"π":{"ha":1025,"x_min":14,"x_max":1000,"o":"m 996 501 l 885 501 l 885 225 q 897 176 885 192 q 996 170 918 145 l 1000 33 q 789 -14 921 -14 q 598 49 658 -14 q 538 239 538 111 l 538 501 l 458 501 l 458 0 l 111 0 l 111 501 l 14 501 l 14 647 l 996 647 l 996 501 z "},"Ẁ":{"ha":1516,"x_min":7,"x_max":1510,"o":"m 660 986 l 542 1158 l 835 1158 l 895 986 l 660 986 m 953 925 l 1074 493 l 1200 925 l 1510 925 l 1249 0 l 903 0 l 766 490 l 614 0 l 279 0 l 7 925 l 389 925 l 503 493 l 623 925 l 953 925 z "},"ẁ":{"ha":1230,"x_min":-7,"x_max":1242,"o":"m 510 715 l 368 925 l 659 925 l 726 715 l 510 715 m 536 0 l 208 0 l -7 647 l 328 647 l 392 292 l 484 647 l 772 647 l 857 292 l 914 647 l 1242 647 l 1026 0 l 713 0 l 624 278 l 536 0 z "},"Ẃ":{"ha":1516,"x_min":7,"x_max":1510,"o":"m 1043 1158 l 907 986 l 672 986 l 729 1158 l 1043 1158 m 953 925 l 1074 493 l 1200 925 l 1510 925 l 1249 0 l 903 0 l 766 490 l 614 0 l 279 0 l 7 925 l 389 925 l 503 493 l 623 925 l 953 925 z "},"ẃ":{"ha":1230,"x_min":-7,"x_max":1242,"o":"m 890 925 l 749 715 l 532 715 l 600 925 l 890 925 m 536 0 l 208 0 l -7 647 l 328 647 l 392 292 l 484 647 l 772 647 l 857 292 l 914 647 l 1242 647 l 1026 0 l 713 0 l 624 278 l 536 0 z "},"Ẅ":{"ha":1516,"x_min":7,"x_max":1510,"o":"m 729 993 l 468 993 l 468 1173 l 729 1173 l 729 993 m 1065 993 l 799 993 l 799 1173 l 1065 1173 l 1065 993 m 953 925 l 1074 493 l 1200 925 l 1510 925 l 1249 0 l 903 0 l 766 490 l 614 0 l 279 0 l 7 925 l 389 925 l 503 493 l 623 925 l 953 925 z "},"ẅ":{"ha":1230,"x_min":-7,"x_max":1242,"o":"m 586 720 l 345 720 l 345 925 l 586 925 l 586 720 m 900 720 l 653 720 l 653 925 l 900 925 l 900 720 m 536 0 l 208 0 l -7 647 l 328 647 l 392 292 l 484 647 l 772 647 l 857 292 l 914 647 l 1242 647 l 1026 0 l 713 0 l 624 278 l 536 0 z "},"Ỳ":{"ha":1030,"x_min":7,"x_max":1023,"o":"m 411 986 l 293 1158 l 586 1158 l 646 986 l 411 986 m 701 0 l 326 0 l 326 326 l 7 925 l 400 925 l 536 623 l 676 925 l 1023 925 l 701 325 l 701 0 z "},"ỳ":{"ha":814,"x_min":-7,"x_max":828,"o":"m 315 715 l 174 925 l 464 925 l 532 715 l 315 715 m 420 -228 q 285 -241 373 -241 q 109 -205 197 -241 l 114 -71 q 174 -78 142 -77 q 260 -22 243 -78 l -7 647 l 326 647 l 427 271 l 530 647 l 828 647 l 608 14 q 561 -100 583 -58 q 504 -178 538 -142 q 420 -228 469 -213 z "},"–":{"ha":882,"x_min":69,"x_max":812,"o":"m 812 253 l 69 253 l 69 488 l 812 488 l 812 253 z "},"—":{"ha":1201,"x_min":69,"x_max":1132,"o":"m 1132 253 l 69 253 l 69 488 l 1132 488 l 1132 253 z "},"‘":{"ha":416,"x_min":41,"x_max":361,"o":"m 222 725 l 361 725 l 361 460 l 41 460 l 43 677 q 339 939 43 933 l 353 846 q 252 808 281 838 q 222 725 222 779 z "},"’":{"ha":416,"x_min":56,"x_max":375,"o":"m 195 660 l 56 660 l 56 925 l 375 925 l 374 707 q 78 446 374 451 l 64 539 q 165 576 136 547 q 195 660 195 606 z "},"‚":{"ha":414,"x_min":49,"x_max":366,"o":"m 366 293 l 366 36 q 284 -166 366 -96 q 62 -236 203 -236 l 52 -147 q 186 0 186 -134 l 49 0 l 49 293 l 366 293 z "},"“":{"ha":814,"x_min":41,"x_max":758,"o":"m 222 725 l 361 725 l 361 460 l 41 460 l 43 677 q 339 939 43 933 l 353 846 q 252 808 281 838 q 222 725 222 779 m 619 725 l 758 725 l 758 460 l 439 460 l 440 677 q 736 939 440 933 l 750 846 q 648 808 678 838 q 619 725 618 779 z "},"”":{"ha":814,"x_min":56,"x_max":772,"o":"m 591 660 l 453 660 l 453 925 l 772 925 l 771 707 q 475 446 771 451 l 461 539 q 562 576 533 547 q 591 660 591 606 m 195 660 l 56 660 l 56 925 l 375 925 l 374 707 q 78 446 374 451 l 64 539 q 165 576 136 547 q 195 660 195 606 z "},"„":{"ha":814,"x_min":49,"x_max":762,"o":"m 762 293 l 762 36 q 681 -166 762 -96 q 460 -236 600 -236 l 449 -147 q 583 0 584 -134 l 446 0 l 446 293 l 762 293 m 366 293 l 366 36 q 284 -166 366 -96 q 62 -236 203 -236 l 52 -147 q 186 0 186 -134 l 49 0 l 49 293 l 366 293 z "},"†":{"ha":659,"x_min":56,"x_max":604,"o":"m 164 372 l 311 623 l 56 498 l 56 799 l 311 675 l 164 925 l 496 925 l 350 675 l 604 799 l 604 498 l 350 623 l 496 372 l 353 -195 l 307 -195 l 164 372 z "},"‡":{"ha":659,"x_min":56,"x_max":604,"o":"m 604 498 l 350 623 l 496 372 l 496 358 l 350 109 l 604 232 l 604 -68 l 350 56 l 496 -195 l 164 -195 l 311 56 l 56 -68 l 56 232 l 311 109 l 164 358 l 164 372 l 311 623 l 56 498 l 56 799 l 311 675 l 164 925 l 496 925 l 350 675 l 604 799 l 604 498 z "},"•":{"ha":581,"x_min":41,"x_max":539,"o":"m 41 390 q 115 566 41 493 q 290 639 187 639 q 467 566 393 639 q 539 390 540 492 q 466 214 539 288 q 290 141 393 141 q 114 214 187 141 q 41 390 41 287 z "},"…":{"ha":1241,"x_min":49,"x_max":1193,"o":"m 1193 0 l 876 0 l 876 293 l 1193 293 l 1193 0 m 779 0 l 463 0 l 463 293 l 779 293 l 779 0 m 366 0 l 49 0 l 49 293 l 366 293 l 366 0 z "},"‰":{"ha":1887,"x_min":21,"x_max":1867,"o":"m 1636 240 q 1628 324 1636 300 q 1594 349 1619 349 q 1561 324 1569 349 q 1553 240 1553 300 q 1561 157 1553 180 q 1594 133 1569 133 q 1628 157 1619 133 q 1636 240 1636 180 m 1867 240 q 1796 55 1868 123 q 1595 -14 1724 -14 q 1394 55 1466 -14 q 1322 240 1322 123 q 1396 427 1322 357 q 1594 496 1470 496 q 1793 426 1719 495 q 1867 240 1867 357 m 327 572 q 331 584 327 572 q 335 656 335 596 q 327 740 335 715 q 293 764 319 764 q 260 739 268 764 q 252 656 252 715 q 260 572 252 596 q 293 549 268 549 q 327 572 319 549 m 566 656 q 494 471 566 540 q 293 401 422 401 q 92 470 164 401 q 21 655 21 538 q 94 842 21 772 q 293 911 168 911 q 492 842 418 911 q 566 656 566 772 m 1034 157 q 1042 240 1042 180 q 1034 324 1042 300 q 1000 349 1025 349 q 967 324 975 349 q 958 240 959 300 q 966 157 958 180 q 1000 133 974 133 q 1034 157 1025 133 m 964 897 l 503 0 l 332 0 l 793 897 l 964 897 m 1199 426 q 1236 391 1199 426 q 1272 240 1272 357 q 1200 55 1272 123 q 1000 -14 1128 -14 q 800 55 871 -14 q 728 240 728 123 q 802 426 728 357 q 1000 496 876 495 q 1199 426 1126 495 z "},"‹":{"ha":553,"x_min":46,"x_max":490,"o":"m 490 408 l 269 323 l 490 239 l 490 29 l 46 231 l 46 416 l 490 618 l 490 408 z "},"›":{"ha":553,"x_min":62,"x_max":507,"o":"m 283 323 l 62 408 l 62 618 l 507 416 l 507 231 l 62 29 l 62 239 l 283 323 z "},"⁄":{"ha":671,"x_min":-21,"x_max":692,"o":"m 692 925 l 143 0 l -21 0 l 529 925 l 692 925 z "},"€":{"ha":1101,"x_min":35,"x_max":1057,"o":"m 672 345 l 522 345 q 659 224 554 224 q 803 392 774 224 l 1057 322 q 929 82 1042 178 q 625 -14 817 -14 q 311 83 434 -14 q 158 345 189 180 l 35 345 l 35 418 l 150 418 l 150 479 l 35 479 l 35 553 l 160 553 q 312 812 191 713 q 627 911 433 911 q 928 812 821 911 q 1038 558 1035 714 l 782 507 q 747 625 782 576 q 656 673 713 674 q 519 553 549 673 l 672 553 l 672 479 l 509 479 l 509 449 q 510 418 509 428 l 672 418 l 672 345 z "},"™":{"ha":905,"x_min":39,"x_max":864,"o":"m 370 815 l 273 815 l 273 597 l 132 597 l 132 815 l 39 815 l 39 925 l 370 925 l 370 815 m 864 597 l 718 597 l 718 743 l 671 597 l 578 597 l 529 743 l 529 597 l 416 597 l 416 925 l 581 925 l 625 782 l 671 925 l 864 925 l 864 597 z "},"∂":{"ha":977,"x_min":36,"x_max":939,"o":"m 475 378 q 418 348 441 378 q 395 260 395 318 q 447 201 395 201 q 505 237 483 201 q 528 313 528 272 q 475 378 528 378 m 415 -14 q 134 65 231 -14 q 36 264 37 144 q 113 465 36 383 q 343 546 191 546 q 484 503 428 545 q 553 386 539 461 q 564 509 564 456 q 372 728 564 728 q 218 676 289 728 l 134 822 q 465 942 269 941 q 682 906 589 941 q 831 810 776 871 q 939 518 940 687 q 806 146 939 298 q 642 29 742 72 q 415 -14 541 -14 z "},"∆":{"ha":1012,"x_min":35,"x_max":978,"o":"m 505 682 l 407 207 l 604 207 l 505 682 m 711 925 l 978 0 l 35 0 l 301 925 l 711 925 z "},"∏":{"ha":1098,"x_min":28,"x_max":1071,"o":"m 946 -139 l 599 -139 l 599 768 l 500 768 l 500 -139 l 153 -139 l 153 768 l 28 768 l 28 925 l 1071 925 l 1071 768 l 946 768 l 946 -139 z "},"∑":{"ha":804,"x_min":49,"x_max":774,"o":"m 56 -139 l 56 18 l 319 400 l 49 768 l 49 925 l 750 925 l 750 768 l 439 768 l 708 404 l 437 18 l 774 18 l 774 -139 l 56 -139 z "},"−":{"ha":651,"x_min":62,"x_max":589,"o":"m 589 253 l 62 253 l 62 488 l 589 488 l 589 253 z "},"√":{"ha":1019,"x_min":41,"x_max":981,"o":"m 614 1000 l 981 1000 l 714 0 l 267 0 l 41 486 l 314 602 l 463 261 l 614 1000 z "},"∞":{"ha":1269,"x_min":28,"x_max":1242,"o":"m 369 433 q 356 423 369 433 q 343 383 343 414 q 369 334 343 353 q 441 315 395 315 q 574 383 524 315 q 441 452 524 451 q 369 433 395 452 m 901 334 q 913 343 901 334 q 926 383 926 353 q 901 433 926 414 q 828 452 875 452 q 696 383 746 452 q 828 315 746 315 q 901 334 875 315 m 28 383 q 109 591 28 514 q 329 668 189 669 q 627 497 494 668 q 764 623 680 578 q 940 668 848 669 q 1161 591 1080 668 q 1242 382 1242 513 q 1161 175 1242 252 q 940 98 1080 98 q 769 147 850 98 q 628 273 688 196 q 499 146 579 194 q 329 98 419 99 q 109 175 189 98 q 28 383 28 252 z "},"∫":{"ha":570,"x_min":-31,"x_max":550,"o":"m 440 700 l 440 11 q 377 -179 440 -117 q 186 -241 315 -241 q -31 -195 57 -241 l -26 -60 q 28 -68 1 -68 q 67 -52 56 -68 q 79 -3 79 -35 l 79 686 q 142 876 79 814 q 338 939 206 939 q 550 892 469 939 l 546 755 q 490 765 515 765 q 440 700 440 765 z "},"≈":{"ha":858,"x_min":56,"x_max":810,"o":"m 265 117 q 157 72 220 117 l 75 180 q 153 281 100 241 q 262 319 205 319 q 347 307 318 319 q 456 257 421 274 q 509 233 490 240 q 559 227 528 227 q 720 302 652 227 l 810 204 q 721 78 783 132 q 562 24 658 24 q 389 65 465 24 q 296 112 313 106 q 265 117 280 117 m 142 545 q 252 586 197 586 q 335 578 308 586 q 429 538 362 570 q 545 505 496 506 q 668 586 623 505 l 782 469 q 699 347 755 403 q 567 290 643 290 q 490 302 515 290 q 437 328 465 315 q 395 349 408 342 q 264 392 302 392 q 199 377 227 392 q 136 332 172 362 l 56 446 q 142 545 87 505 z "},"≠":{"ha":677,"x_min":56,"x_max":623,"o":"m 56 74 l 56 254 l 260 254 l 338 363 l 56 363 l 56 543 l 468 543 l 532 632 l 574 602 l 530 543 l 623 543 l 623 363 l 401 363 l 323 254 l 623 254 l 623 74 l 193 74 l 146 7 l 104 37 l 129 74 l 56 74 z "},"≤":{"ha":726,"x_min":56,"x_max":671,"o":"m 671 0 l 56 0 l 56 170 l 671 170 l 671 0 m 629 467 l 245 428 l 629 389 l 629 195 l 81 325 l 81 530 l 629 661 l 629 467 z "},"≥":{"ha":726,"x_min":56,"x_max":671,"o":"m 671 0 l 56 0 l 56 170 l 671 170 l 671 0 m 481 428 l 97 467 l 97 661 l 646 530 l 646 325 l 97 195 l 97 389 l 481 428 z "},"◊":{"ha":935,"x_min":31,"x_max":904,"o":"m 575 464 l 467 714 l 359 464 l 467 211 l 575 464 m 654 925 l 904 464 l 654 0 l 279 0 l 31 464 l 279 925 l 654 925 z "},"":{"ha":1071,"x_min":83,"x_max":1008,"o":"m 1008 463 l 546 463 l 546 0 l 83 0 l 83 925 l 1008 925 l 1008 463 z "},"ﬀ":{"ha":1116,"x_min":7,"x_max":1120,"o":"m 997 755 q 949 705 949 755 q 970 647 949 676 l 1086 647 l 1086 524 l 983 524 l 983 0 l 623 0 l 623 524 l 452 524 l 452 0 l 90 0 l 90 524 l 7 524 l 7 647 l 90 647 q 81 724 81 686 q 152 882 81 825 q 347 939 222 939 q 557 869 472 939 l 498 746 q 464 755 481 755 q 416 705 416 755 q 437 647 416 677 l 623 647 q 612 724 613 686 q 684 882 612 825 q 890 939 755 939 q 1120 848 1024 939 l 1044 734 q 997 755 1021 755 z "},"ﬁ":{"ha":1018,"x_min":7,"x_max":970,"o":"m 970 0 l 608 0 l 608 647 l 970 647 l 970 0 m 970 693 l 608 693 l 608 925 l 970 925 l 970 693 m 541 647 l 541 524 l 452 524 l 452 0 l 90 0 l 90 524 l 7 524 l 7 647 l 90 647 q 81 724 81 686 q 152 882 81 825 q 351 939 224 939 q 557 861 479 939 l 496 742 q 454 755 477 755 q 419 719 419 755 q 437 647 419 682 l 541 647 z "},"ﬂ":{"ha":1025,"x_min":7,"x_max":977,"o":"m 977 0 l 615 0 l 615 925 l 977 925 l 977 0 m 464 755 q 416 705 418 755 q 437 647 416 676 l 554 647 l 554 510 l 452 510 l 452 0 l 90 0 l 90 510 l 7 510 l 7 647 l 90 647 q 81 724 81 686 q 152 882 81 825 q 357 939 223 939 q 587 848 492 939 l 513 734 q 464 755 490 755 z "},"ﬃ":{"ha":1536,"x_min":7,"x_max":1487,"o":"m 1487 693 l 1126 693 l 1126 925 l 1487 925 l 1487 693 m 1487 0 l 1126 0 l 1126 647 l 1487 647 l 1487 0 m 452 524 l 452 0 l 90 0 l 90 524 l 7 524 l 7 647 l 90 647 q 81 724 81 686 q 152 882 81 825 q 347 939 222 939 q 557 869 472 939 l 498 746 q 464 755 481 755 q 416 705 416 755 q 437 647 416 677 l 623 647 q 612 724 613 686 q 684 882 612 825 q 883 939 755 939 q 1089 861 1010 939 l 1028 742 q 986 755 1010 755 q 951 719 951 755 q 970 647 951 682 l 1072 647 l 1072 524 l 983 524 l 983 0 l 623 0 l 623 524 l 452 524 z "},"ﬄ":{"ha":1556,"x_min":7,"x_max":1508,"o":"m 997 755 q 949 705 949 755 q 970 647 949 676 l 1086 647 l 1086 524 l 983 524 l 983 0 l 623 0 l 623 524 l 452 524 l 452 0 l 90 0 l 90 524 l 7 524 l 7 647 l 90 647 q 81 724 81 686 q 152 882 81 825 q 347 939 222 939 q 557 869 472 939 l 498 746 q 464 755 481 755 q 416 705 416 755 q 437 647 416 677 l 623 647 q 612 724 613 686 q 684 882 612 825 q 890 939 755 939 q 1120 848 1024 939 l 1044 734 q 997 755 1021 755 m 1508 0 l 1147 0 l 1147 925 l 1508 925 l 1508 0 z "}}}
